  0
SECTION
  2
HEADER
  9
$ACADVER
  1
AC1009
  9
$FILLMODE
 70
1
  9
$EXTMIN
 10
-8.8210
 20
-2.0320
 30
0.0000
  9
$EXTMAX
 10
18.6023
 20
9.2277
 30
0.0000
  0
ENDSEC
  0
SECTION
  2
TABLES
  0
TABLE
  2
LTYPE
 70
1
  0
LTYPE
  2
CONTINUOUS
 70
64
  3
Solid line
 72
65
 73
0
 40
0
  0
ENDTAB
  0
TABLE
  2
LAYER
 70
255
  0
LAYER
  2
20
 70
64
 62
253
  6
CONTINUOUS
  0
LAYER
  2
21
 70
64
 62
7
  6
CONTINUOUS
  0
LAYER
  2
29
 70
64
 62
253
  6
CONTINUOUS
  0
ENDTAB
  0
ENDSEC
  0
SECTION
  2
BLOCKS
  0
BLOCK
  8
0
  2
RECT
 70
64
 10
0.0000
 20
0.0000
 30
0.0000
  3
RECT
  0
SOLID
  8
0
 10
-0.5000
 20
-0.5000
 30
0.0000
 11
0.5000
 21
-0.5000
 31
0.0000
 12
-0.5000
 22
0.5000
 32
0.0000
 13
0.5000
 23
0.5000
 33
0.0000
  0
ENDBLK
  8
0
  0
BLOCK
  8
0
  2
PIE
 70
64
 10
0.0000
 20
0.0000
 30
0.0000
  3
PIE
  0
POLYLINE
  8
0
 66
1
 10
0.0000
 20
0.0000
 30
0.0000
 40
0.5000
 41
0.5000
 70
0
  0
VERTEX
  8
0
 10
0.0000
 20
-0.2500
 30
0.0000
 42
1.0000
  0
VERTEX
  8
0
 10
0.0000
 20
0.2500
 30
0.0000
 42
1.0000
  0
VERTEX
  8
0
 10
0.0000
 20
-0.2500
 30
0.0000
  0
SEQEND
  8
0
  0
ENDBLK
  8
0
  0
BLOCK
  8
0
  2
OCTAGONP
 70
64
 10
0.0000
 20
0.0000
 30
0.0000
  3
OCTAGONP
  0
POLYLINE
  8
0
 66
1
 10
0.0000
 20
0.0000
 30
0.0000
 40
0.5000
 41
0.5000
 70
0
  0
VERTEX
  8
0
 10
-0.2500
 20
-0.1036
 30
0.0000
  0
VERTEX
  8
0
 10
-0.2500
 20
0.1036
 30
0.0000
  0
VERTEX
  8
0
 10
-0.1036
 20
0.2500
 30
0.0000
  0
VERTEX
  8
0
 10
0.1036
 20
0.2500
 30
0.0000
  0
VERTEX
  8
0
 10
0.2500
 20
0.1036
 30
0.0000
  0
VERTEX
  8
0
 10
0.2500
 20
-0.1036
 30
0.0000
  0
VERTEX
  8
0
 10
0.1036
 20
-0.2500
 30
0.0000
  0
VERTEX
  8
0
 10
-0.1036
 20
-0.2500
 30
0.0000
  0
VERTEX
  8
0
 10
-0.2500
 20
-0.1036
 30
0.0000
  0
VERTEX
  8
0
 10
-0.2500
 20
0.1036
 30
0.0000
  0
SEQEND
  8
0
  0
ENDBLK
  8
0
  0
BLOCK
  8
0
  2
SQUAREP
 70
64
 10
0.0000
 20
0.0000
 30
0.0000
  3
SQUAREP
  0
SOLID
  8
0
 10
-0.5000
 20
-0.5000
 30
0.0000
 11
0.5000
 21
-0.5000
 31
0.0000
 12
-0.5000
 22
0.5000
 32
0.0000
 13
0.5000
 23
0.5000
 33
0.0000
  0
ENDBLK
  8
0
  0
BLOCK
  8
0
  2
ROUNDP
 70
64
 10
0.0000
 20
0.0000
 30
0.0000
  3
ROUNDP
  0
POLYLINE
  8
0
 66
1
 10
0.0000
 20
0.0000
 30
0.0000
 40
0.5000
 41
0.5000
 70
0
  0
VERTEX
  8
0
 10
0.0000
 20
-0.2500
 30
0.0000
 42
1.0000
  0
VERTEX
  8
0
 10
0.0000
 20
0.2500
 30
0.0000
 42
1.0000
  0
VERTEX
  8
0
 10
0.0000
 20
-0.2500
 30
0.0000
  0
SEQEND
  8
0
  0
ENDBLK
  8
0
  0
BLOCK
  8
0
  2
ANNULUSP
 70
64
 10
0.0000
 20
0.0000
 30
0.0000
  3
ANNULUSP
  0
POLYLINE
  8
0
 66
1
 10
0.0000
 20
0.0000
 30
0.0000
 40
0.5000
 41
0.5000
 70
0
  0
VERTEX
  8
0
 10
0.0000
 20
-0.2500
 30
0.0000
 42
1.0000
  0
VERTEX
  8
0
 10
0.0000
 20
0.2500
 30
0.0000
 42
1.0000
  0
VERTEX
  8
0
 10
0.0000
 20
-0.2500
 30
0.0000
  0
SEQEND
  8
0
  0
ENDBLK
  8
0
  0
BLOCK
  8
0
  2
THERMALP
 70
64
 10
0.0000
 20
0.0000
 30
0.0000
  3
THERMALP
  0
POLYLINE
  8
0
 66
1
 10
0.0000
 20
0.0000
 30
0.0000
 40
0.1000
 41
0.1000
 70
0
  0
VERTEX
  8
0
 10
-0.2379
 20
0.4500
 30
0.0000
  0
VERTEX
  8
0
 10
0.2379
 20
0.4500
 30
0.0000
  0
SEQEND
  8
0
  0
POLYLINE
  8
0
 66
1
 10
0.0000
 20
0.0000
 30
0.0000
 40
0.0500
 41
0.0500
 70
0
  0
VERTEX
  8
0
 10
0.2379
 20
0.4250
 30
0.0000
 42
1.0000
  0
VERTEX
  8
0
 10
0.2379
 20
0.4750
 30
0.0000
  0
SEQEND
  8
0
  0
POLYLINE
  8
0
 66
1
 10
0.0000
 20
0.0000
 30
0.0000
 40
0.0500
 41
0.0500
 70
0
  0
VERTEX
  8
0
 10
-0.2379
 20
0.4750
 30
0.0000
 42
1.0000
  0
VERTEX
  8
0
 10
-0.2379
 20
0.4250
 30
0.0000
  0
SEQEND
  8
0
  0
POLYLINE
  8
0
 66
1
 10
0.0000
 20
0.0000
 30
0.0000
 40
0.1000
 41
0.1000
 70
0
  0
VERTEX
  8
0
 10
0.4500
 20
0.2379
 30
0.0000
  0
VERTEX
  8
0
 10
0.4500
 20
-0.2379
 30
0.0000
  0
SEQEND
  8
0
  0
POLYLINE
  8
0
 66
1
 10
0.0000
 20
0.0000
 30
0.0000
 40
0.0500
 41
0.0500
 70
0
  0
VERTEX
  8
0
 10
0.4250
 20
-0.2379
 30
0.0000
 42
1.0000
  0
VERTEX
  8
0
 10
0.4750
 20
-0.2379
 30
0.0000
  0
SEQEND
  8
0
  0
POLYLINE
  8
0
 66
1
 10
0.0000
 20
0.0000
 30
0.0000
 40
0.0500
 41
0.0500
 70
0
  0
VERTEX
  8
0
 10
0.4750
 20
0.2379
 30
0.0000
 42
1.0000
  0
VERTEX
  8
0
 10
0.4250
 20
0.2379
 30
0.0000
  0
SEQEND
  8
0
  0
POLYLINE
  8
0
 66
1
 10
0.0000
 20
0.0000
 30
0.0000
 40
0.1000
 41
0.1000
 70
0
  0
VERTEX
  8
0
 10
0.2379
 20
-0.4500
 30
0.0000
  0
VERTEX
  8
0
 10
-0.2379
 20
-0.4500
 30
0.0000
  0
SEQEND
  8
0
  0
POLYLINE
  8
0
 66
1
 10
0.0000
 20
0.0000
 30
0.0000
 40
0.0500
 41
0.0500
 70
0
  0
VERTEX
  8
0
 10
-0.2379
 20
-0.4250
 30
0.0000
 42
1.0000
  0
VERTEX
  8
0
 10
-0.2379
 20
-0.4750
 30
0.0000
  0
SEQEND
  8
0
  0
POLYLINE
  8
0
 66
1
 10
0.0000
 20
0.0000
 30
0.0000
 40
0.0500
 41
0.0500
 70
0
  0
VERTEX
  8
0
 10
0.2379
 20
-0.4750
 30
0.0000
 42
1.0000
  0
VERTEX
  8
0
 10
0.2379
 20
-0.4250
 30
0.0000
  0
SEQEND
  8
0
  0
POLYLINE
  8
0
 66
1
 10
0.0000
 20
0.0000
 30
0.0000
 40
0.1000
 41
0.1000
 70
0
  0
VERTEX
  8
0
 10
-0.4500
 20
-0.2379
 30
0.0000
  0
VERTEX
  8
0
 10
-0.4500
 20
0.2379
 30
0.0000
  0
SEQEND
  8
0
  0
POLYLINE
  8
0
 66
1
 10
0.0000
 20
0.0000
 30
0.0000
 40
0.0500
 41
0.0500
 70
0
  0
VERTEX
  8
0
 10
-0.4250
 20
0.2379
 30
0.0000
 42
1.0000
  0
VERTEX
  8
0
 10
-0.4750
 20
0.2379
 30
0.0000
  0
SEQEND
  8
0
  0
POLYLINE
  8
0
 66
1
 10
0.0000
 20
0.0000
 30
0.0000
 40
0.0500
 41
0.0500
 70
0
  0
VERTEX
  8
0
 10
-0.4750
 20
-0.2379
 30
0.0000
 42
1.0000
  0
VERTEX
  8
0
 10
-0.4250
 20
-0.2379
 30
0.0000
  0
SEQEND
  8
0
  0
ENDBLK
  8
0
  0
BLOCK
  8
0
  2
OCTAGONV
 70
64
 10
0.0000
 20
0.0000
 30
0.0000
  3
OCTAGONV
  0
POLYLINE
  8
0
 66
1
 10
0.0000
 20
0.0000
 30
0.0000
 40
0.5000
 41
0.5000
 70
0
  0
VERTEX
  8
0
 10
-0.2500
 20
-0.1036
 30
0.0000
  0
VERTEX
  8
0
 10
-0.2500
 20
0.1036
 30
0.0000
  0
VERTEX
  8
0
 10
-0.1036
 20
0.2500
 30
0.0000
  0
VERTEX
  8
0
 10
0.1036
 20
0.2500
 30
0.0000
  0
VERTEX
  8
0
 10
0.2500
 20
0.1036
 30
0.0000
  0
VERTEX
  8
0
 10
0.2500
 20
-0.1036
 30
0.0000
  0
VERTEX
  8
0
 10
0.1036
 20
-0.2500
 30
0.0000
  0
VERTEX
  8
0
 10
-0.1036
 20
-0.2500
 30
0.0000
  0
VERTEX
  8
0
 10
-0.2500
 20
-0.1036
 30
0.0000
  0
VERTEX
  8
0
 10
-0.2500
 20
0.1036
 30
0.0000
  0
SEQEND
  8
0
  0
ENDBLK
  8
0
  0
BLOCK
  8
0
  2
SQUAREV
 70
64
 10
0.0000
 20
0.0000
 30
0.0000
  3
SQUAREV
  0
SOLID
  8
0
 10
-0.5000
 20
-0.5000
 30
0.0000
 11
0.5000
 21
-0.5000
 31
0.0000
 12
-0.5000
 22
0.5000
 32
0.0000
 13
0.5000
 23
0.5000
 33
0.0000
  0
ENDBLK
  8
0
  0
BLOCK
  8
0
  2
ROUNDV
 70
64
 10
0.0000
 20
0.0000
 30
0.0000
  3
ROUNDV
  0
POLYLINE
  8
0
 66
1
 10
0.0000
 20
0.0000
 30
0.0000
 40
0.5000
 41
0.5000
 70
0
  0
VERTEX
  8
0
 10
0.0000
 20
-0.2500
 30
0.0000
 42
1.0000
  0
VERTEX
  8
0
 10
0.0000
 20
0.2500
 30
0.0000
 42
1.0000
  0
VERTEX
  8
0
 10
0.0000
 20
-0.2500
 30
0.0000
  0
SEQEND
  8
0
  0
ENDBLK
  8
0
  0
BLOCK
  8
0
  2
ANNULUSV
 70
64
 10
0.0000
 20
0.0000
 30
0.0000
  3
ANNULUSV
  0
POLYLINE
  8
0
 66
1
 10
0.0000
 20
0.0000
 30
0.0000
 40
0.5000
 41
0.5000
 70
0
  0
VERTEX
  8
0
 10
0.0000
 20
-0.2500
 30
0.0000
 42
1.0000
  0
VERTEX
  8
0
 10
0.0000
 20
0.2500
 30
0.0000
 42
1.0000
  0
VERTEX
  8
0
 10
0.0000
 20
-0.2500
 30
0.0000
  0
SEQEND
  8
0
  0
ENDBLK
  8
0
  0
BLOCK
  8
0
  2
THERMALV
 70
64
 10
0.0000
 20
0.0000
 30
0.0000
  3
THERMALV
  0
POLYLINE
  8
0
 66
1
 10
0.0000
 20
0.0000
 30
0.0000
 40
0.1000
 41
0.1000
 70
0
  0
VERTEX
  8
0
 10
-0.2379
 20
0.4500
 30
0.0000
  0
VERTEX
  8
0
 10
0.2379
 20
0.4500
 30
0.0000
  0
SEQEND
  8
0
  0
POLYLINE
  8
0
 66
1
 10
0.0000
 20
0.0000
 30
0.0000
 40
0.0500
 41
0.0500
 70
0
  0
VERTEX
  8
0
 10
0.2379
 20
0.4250
 30
0.0000
 42
1.0000
  0
VERTEX
  8
0
 10
0.2379
 20
0.4750
 30
0.0000
  0
SEQEND
  8
0
  0
POLYLINE
  8
0
 66
1
 10
0.0000
 20
0.0000
 30
0.0000
 40
0.0500
 41
0.0500
 70
0
  0
VERTEX
  8
0
 10
-0.2379
 20
0.4750
 30
0.0000
 42
1.0000
  0
VERTEX
  8
0
 10
-0.2379
 20
0.4250
 30
0.0000
  0
SEQEND
  8
0
  0
POLYLINE
  8
0
 66
1
 10
0.0000
 20
0.0000
 30
0.0000
 40
0.1000
 41
0.1000
 70
0
  0
VERTEX
  8
0
 10
0.4500
 20
0.2379
 30
0.0000
  0
VERTEX
  8
0
 10
0.4500
 20
-0.2379
 30
0.0000
  0
SEQEND
  8
0
  0
POLYLINE
  8
0
 66
1
 10
0.0000
 20
0.0000
 30
0.0000
 40
0.0500
 41
0.0500
 70
0
  0
VERTEX
  8
0
 10
0.4250
 20
-0.2379
 30
0.0000
 42
1.0000
  0
VERTEX
  8
0
 10
0.4750
 20
-0.2379
 30
0.0000
  0
SEQEND
  8
0
  0
POLYLINE
  8
0
 66
1
 10
0.0000
 20
0.0000
 30
0.0000
 40
0.0500
 41
0.0500
 70
0
  0
VERTEX
  8
0
 10
0.4750
 20
0.2379
 30
0.0000
 42
1.0000
  0
VERTEX
  8
0
 10
0.4250
 20
0.2379
 30
0.0000
  0
SEQEND
  8
0
  0
POLYLINE
  8
0
 66
1
 10
0.0000
 20
0.0000
 30
0.0000
 40
0.1000
 41
0.1000
 70
0
  0
VERTEX
  8
0
 10
0.2379
 20
-0.4500
 30
0.0000
  0
VERTEX
  8
0
 10
-0.2379
 20
-0.4500
 30
0.0000
  0
SEQEND
  8
0
  0
POLYLINE
  8
0
 66
1
 10
0.0000
 20
0.0000
 30
0.0000
 40
0.0500
 41
0.0500
 70
0
  0
VERTEX
  8
0
 10
-0.2379
 20
-0.4250
 30
0.0000
 42
1.0000
  0
VERTEX
  8
0
 10
-0.2379
 20
-0.4750
 30
0.0000
  0
SEQEND
  8
0
  0
POLYLINE
  8
0
 66
1
 10
0.0000
 20
0.0000
 30
0.0000
 40
0.0500
 41
0.0500
 70
0
  0
VERTEX
  8
0
 10
0.2379
 20
-0.4750
 30
0.0000
 42
1.0000
  0
VERTEX
  8
0
 10
0.2379
 20
-0.4250
 30
0.0000
  0
SEQEND
  8
0
  0
POLYLINE
  8
0
 66
1
 10
0.0000
 20
0.0000
 30
0.0000
 40
0.1000
 41
0.1000
 70
0
  0
VERTEX
  8
0
 10
-0.4500
 20
-0.2379
 30
0.0000
  0
VERTEX
  8
0
 10
-0.4500
 20
0.2379
 30
0.0000
  0
SEQEND
  8
0
  0
POLYLINE
  8
0
 66
1
 10
0.0000
 20
0.0000
 30
0.0000
 40
0.0500
 41
0.0500
 70
0
  0
VERTEX
  8
0
 10
-0.4250
 20
0.2379
 30
0.0000
 42
1.0000
  0
VERTEX
  8
0
 10
-0.4750
 20
0.2379
 30
0.0000
  0
SEQEND
  8
0
  0
POLYLINE
  8
0
 66
1
 10
0.0000
 20
0.0000
 30
0.0000
 40
0.0500
 41
0.0500
 70
0
  0
VERTEX
  8
0
 10
-0.4750
 20
-0.2379
 30
0.0000
 42
1.0000
  0
VERTEX
  8
0
 10
-0.4250
 20
-0.2379
 30
0.0000
  0
SEQEND
  8
0
  0
ENDBLK
  8
0
  0
ENDSEC
  0
SECTION
  2
ENTITIES
  0
POLYLINE
  8
29
 66
1
 10
0.0000
 20
0.0000
 30
0.0000
 40
0.2540
 41
0.2540
 70
0
  0
VERTEX
  8
29
 10
2.9210
 20
-1.7780
 30
0.0000
  0
VERTEX
  8
29
 10
2.9210
 20
1.7780
 30
0.0000
  0
SEQEND
  8
0
  0
POLYLINE
  8
29
 66
1
 10
0.0000
 20
0.0000
 30
0.0000
 40
0.1270
 41
0.1270
 70
0
  0
VERTEX
  8
29
 10
2.9845
 20
1.7780
 30
0.0000
 42
1.0000
  0
VERTEX
  8
29
 10
2.8575
 20
1.7780
 30
0.0000
  0
SEQEND
  8
0
  0
POLYLINE
  8
29
 66
1
 10
0.0000
 20
0.0000
 30
0.0000
 40
0.1270
 41
0.1270
 70
0
  0
VERTEX
  8
29
 10
2.8575
 20
-1.7780
 30
0.0000
 42
1.0000
  0
VERTEX
  8
29
 10
2.9845
 20
-1.7780
 30
0.0000
  0
SEQEND
  8
0
  0
POLYLINE
  8
29
 66
1
 10
0.0000
 20
0.0000
 30
0.0000
 40
0.2540
 41
0.2540
 70
0
  0
VERTEX
  8
29
 10
2.9210
 20
1.7780
 30
0.0000
  0
VERTEX
  8
29
 10
3.3020
 20
1.7780
 30
0.0000
  0
SEQEND
  8
0
  0
POLYLINE
  8
29
 66
1
 10
0.0000
 20
0.0000
 30
0.0000
 40
0.1270
 41
0.1270
 70
0
  0
VERTEX
  8
29
 10
3.3020
 20
1.7145
 30
0.0000
 42
1.0000
  0
VERTEX
  8
29
 10
3.3020
 20
1.8415
 30
0.0000
  0
SEQEND
  8
0
  0
POLYLINE
  8
29
 66
1
 10
0.0000
 20
0.0000
 30
0.0000
 40
0.1270
 41
0.1270
 70
0
  0
VERTEX
  8
29
 10
2.9210
 20
1.8415
 30
0.0000
 42
1.0000
  0
VERTEX
  8
29
 10
2.9210
 20
1.7145
 30
0.0000
  0
SEQEND
  8
0
  0
POLYLINE
  8
29
 66
1
 10
0.0000
 20
0.0000
 30
0.0000
 40
0.2540
 41
0.2540
 70
0
  0
VERTEX
  8
29
 10
3.3020
 20
1.7780
 30
0.0000
  0
VERTEX
  8
29
 10
3.5225
 20
1.7587
 30
0.0000
  0
SEQEND
  8
0
  0
POLYLINE
  8
29
 66
1
 10
0.0000
 20
0.0000
 30
0.0000
 40
0.1270
 41
0.1270
 70
0
  0
VERTEX
  8
29
 10
3.5170
 20
1.6954
 30
0.0000
 42
1.0000
  0
VERTEX
  8
29
 10
3.5281
 20
1.8220
 30
0.0000
  0
SEQEND
  8
0
  0
POLYLINE
  8
29
 66
1
 10
0.0000
 20
0.0000
 30
0.0000
 40
0.1270
 41
0.1270
 70
0
  0
VERTEX
  8
29
 10
3.3075
 20
1.8413
 30
0.0000
 42
1.0000
  0
VERTEX
  8
29
 10
3.2965
 20
1.7147
 30
0.0000
  0
SEQEND
  8
0
  0
POLYLINE
  8
29
 66
1
 10
0.0000
 20
0.0000
 30
0.0000
 40
0.2540
 41
0.2540
 70
0
  0
VERTEX
  8
29
 10
3.5225
 20
1.7587
 30
0.0000
  0
VERTEX
  8
29
 10
3.7364
 20
1.7014
 30
0.0000
  0
SEQEND
  8
0
  0
POLYLINE
  8
29
 66
1
 10
0.0000
 20
0.0000
 30
0.0000
 40
0.1270
 41
0.1270
 70
0
  0
VERTEX
  8
29
 10
3.7199
 20
1.6401
 30
0.0000
 42
1.0000
  0
VERTEX
  8
29
 10
3.7528
 20
1.7627
 30
0.0000
  0
SEQEND
  8
0
  0
POLYLINE
  8
29
 66
1
 10
0.0000
 20
0.0000
 30
0.0000
 40
0.1270
 41
0.1270
 70
0
  0
VERTEX
  8
29
 10
3.5390
 20
1.8200
 30
0.0000
 42
1.0000
  0
VERTEX
  8
29
 10
3.5061
 20
1.6974
 30
0.0000
  0
SEQEND
  8
0
  0
POLYLINE
  8
29
 66
1
 10
0.0000
 20
0.0000
 30
0.0000
 40
0.2540
 41
0.2540
 70
0
  0
VERTEX
  8
29
 10
3.7364
 20
1.7014
 30
0.0000
  0
VERTEX
  8
29
 10
3.9370
 20
1.6079
 30
0.0000
  0
SEQEND
  8
0
  0
POLYLINE
  8
29
 66
1
 10
0.0000
 20
0.0000
 30
0.0000
 40
0.1270
 41
0.1270
 70
0
  0
VERTEX
  8
29
 10
3.9102
 20
1.5503
 30
0.0000
 42
1.0000
  0
VERTEX
  8
29
 10
3.9638
 20
1.6654
 30
0.0000
  0
SEQEND
  8
0
  0
POLYLINE
  8
29
 66
1
 10
0.0000
 20
0.0000
 30
0.0000
 40
0.1270
 41
0.1270
 70
0
  0
VERTEX
  8
29
 10
3.7632
 20
1.7590
 30
0.0000
 42
1.0000
  0
VERTEX
  8
29
 10
3.7095
 20
1.6439
 30
0.0000
  0
SEQEND
  8
0
  0
POLYLINE
  8
29
 66
1
 10
0.0000
 20
0.0000
 30
0.0000
 40
0.2540
 41
0.2540
 70
0
  0
VERTEX
  8
29
 10
3.9370
 20
1.6079
 30
0.0000
  0
VERTEX
  8
29
 10
4.1183
 20
1.4809
 30
0.0000
  0
SEQEND
  8
0
  0
POLYLINE
  8
29
 66
1
 10
0.0000
 20
0.0000
 30
0.0000
 40
0.1270
 41
0.1270
 70
0
  0
VERTEX
  8
29
 10
4.0819
 20
1.4289
 30
0.0000
 42
1.0000
  0
VERTEX
  8
29
 10
4.1548
 20
1.5329
 30
0.0000
  0
SEQEND
  8
0
  0
POLYLINE
  8
29
 66
1
 10
0.0000
 20
0.0000
 30
0.0000
 40
0.1270
 41
0.1270
 70
0
  0
VERTEX
  8
29
 10
3.9734
 20
1.6599
 30
0.0000
 42
1.0000
  0
VERTEX
  8
29
 10
3.9006
 20
1.5558
 30
0.0000
  0
SEQEND
  8
0
  0
POLYLINE
  8
29
 66
1
 10
0.0000
 20
0.0000
 30
0.0000
 40
0.2540
 41
0.2540
 70
0
  0
VERTEX
  8
29
 10
4.1183
 20
1.4809
 30
0.0000
  0
VERTEX
  8
29
 10
4.2749
 20
1.3243
 30
0.0000
  0
SEQEND
  8
0
  0
POLYLINE
  8
29
 66
1
 10
0.0000
 20
0.0000
 30
0.0000
 40
0.1270
 41
0.1270
 70
0
  0
VERTEX
  8
29
 10
4.2300
 20
1.2794
 30
0.0000
 42
1.0000
  0
VERTEX
  8
29
 10
4.3198
 20
1.3692
 30
0.0000
  0
SEQEND
  8
0
  0
POLYLINE
  8
29
 66
1
 10
0.0000
 20
0.0000
 30
0.0000
 40
0.1270
 41
0.1270
 70
0
  0
VERTEX
  8
29
 10
4.1632
 20
1.5258
 30
0.0000
 42
1.0000
  0
VERTEX
  8
29
 10
4.0734
 20
1.4360
 30
0.0000
  0
SEQEND
  8
0
  0
POLYLINE
  8
29
 66
1
 10
0.0000
 20
0.0000
 30
0.0000
 40
0.2540
 41
0.2540
 70
0
  0
VERTEX
  8
29
 10
4.2749
 20
1.3243
 30
0.0000
  0
VERTEX
  8
29
 10
4.4019
 20
1.1430
 30
0.0000
  0
SEQEND
  8
0
  0
POLYLINE
  8
29
 66
1
 10
0.0000
 20
0.0000
 30
0.0000
 40
0.1270
 41
0.1270
 70
0
  0
VERTEX
  8
29
 10
4.3498
 20
1.1066
 30
0.0000
 42
1.0000
  0
VERTEX
  8
29
 10
4.4539
 20
1.1794
 30
0.0000
  0
SEQEND
  8
0
  0
POLYLINE
  8
29
 66
1
 10
0.0000
 20
0.0000
 30
0.0000
 40
0.1270
 41
0.1270
 70
0
  0
VERTEX
  8
29
 10
4.3269
 20
1.3608
 30
0.0000
 42
1.0000
  0
VERTEX
  8
29
 10
4.2229
 20
1.2879
 30
0.0000
  0
SEQEND
  8
0
  0
POLYLINE
  8
29
 66
1
 10
0.0000
 20
0.0000
 30
0.0000
 40
0.2540
 41
0.2540
 70
0
  0
VERTEX
  8
29
 10
4.4019
 20
1.1430
 30
0.0000
  0
VERTEX
  8
29
 10
4.4954
 20
0.9424
 30
0.0000
  0
SEQEND
  8
0
  0
POLYLINE
  8
29
 66
1
 10
0.0000
 20
0.0000
 30
0.0000
 40
0.1270
 41
0.1270
 70
0
  0
VERTEX
  8
29
 10
4.4379
 20
0.9155
 30
0.0000
 42
1.0000
  0
VERTEX
  8
29
 10
4.5530
 20
0.9692
 30
0.0000
  0
SEQEND
  8
0
  0
POLYLINE
  8
29
 66
1
 10
0.0000
 20
0.0000
 30
0.0000
 40
0.1270
 41
0.1270
 70
0
  0
VERTEX
  8
29
 10
4.4594
 20
1.1698
 30
0.0000
 42
1.0000
  0
VERTEX
  8
29
 10
4.3443
 20
1.1162
 30
0.0000
  0
SEQEND
  8
0
  0
POLYLINE
  8
29
 66
1
 10
0.0000
 20
0.0000
 30
0.0000
 40
0.2540
 41
0.2540
 70
0
  0
VERTEX
  8
29
 10
4.4954
 20
0.9424
 30
0.0000
  0
VERTEX
  8
29
 10
4.5527
 20
0.7285
 30
0.0000
  0
SEQEND
  8
0
  0
POLYLINE
  8
29
 66
1
 10
0.0000
 20
0.0000
 30
0.0000
 40
0.1270
 41
0.1270
 70
0
  0
VERTEX
  8
29
 10
4.4914
 20
0.7121
 30
0.0000
 42
1.0000
  0
VERTEX
  8
29
 10
4.6140
 20
0.7450
 30
0.0000
  0
SEQEND
  8
0
  0
POLYLINE
  8
29
 66
1
 10
0.0000
 20
0.0000
 30
0.0000
 40
0.1270
 41
0.1270
 70
0
  0
VERTEX
  8
29
 10
4.5567
 20
0.9588
 30
0.0000
 42
1.0000
  0
VERTEX
  8
29
 10
4.4341
 20
0.9259
 30
0.0000
  0
SEQEND
  8
0
  0
POLYLINE
  8
29
 66
1
 10
0.0000
 20
0.0000
 30
0.0000
 40
0.2540
 41
0.2540
 70
0
  0
VERTEX
  8
29
 10
4.5527
 20
0.7285
 30
0.0000
  0
VERTEX
  8
29
 10
4.5720
 20
0.5080
 30
0.0000
  0
SEQEND
  8
0
  0
POLYLINE
  8
29
 66
1
 10
0.0000
 20
0.0000
 30
0.0000
 40
0.1270
 41
0.1270
 70
0
  0
VERTEX
  8
29
 10
4.5087
 20
0.5025
 30
0.0000
 42
1.0000
  0
VERTEX
  8
29
 10
4.6353
 20
0.5135
 30
0.0000
  0
SEQEND
  8
0
  0
POLYLINE
  8
29
 66
1
 10
0.0000
 20
0.0000
 30
0.0000
 40
0.1270
 41
0.1270
 70
0
  0
VERTEX
  8
29
 10
4.6160
 20
0.7341
 30
0.0000
 42
1.0000
  0
VERTEX
  8
29
 10
4.4894
 20
0.7230
 30
0.0000
  0
SEQEND
  8
0
  0
POLYLINE
  8
29
 66
1
 10
0.0000
 20
0.0000
 30
0.0000
 40
0.2540
 41
0.2540
 70
0
  0
VERTEX
  8
29
 10
4.5720
 20
0.5080
 30
0.0000
  0
VERTEX
  8
29
 10
4.5720
 20
-0.6350
 30
0.0000
  0
SEQEND
  8
0
  0
POLYLINE
  8
29
 66
1
 10
0.0000
 20
0.0000
 30
0.0000
 40
0.1270
 41
0.1270
 70
0
  0
VERTEX
  8
29
 10
4.5085
 20
-0.6350
 30
0.0000
 42
1.0000
  0
VERTEX
  8
29
 10
4.6355
 20
-0.6350
 30
0.0000
  0
SEQEND
  8
0
  0
POLYLINE
  8
29
 66
1
 10
0.0000
 20
0.0000
 30
0.0000
 40
0.1270
 41
0.1270
 70
0
  0
VERTEX
  8
29
 10
4.6355
 20
0.5080
 30
0.0000
 42
1.0000
  0
VERTEX
  8
29
 10
4.5085
 20
0.5080
 30
0.0000
  0
SEQEND
  8
0
  0
POLYLINE
  8
29
 66
1
 10
0.0000
 20
0.0000
 30
0.0000
 40
0.2540
 41
0.2540
 70
0
  0
VERTEX
  8
29
 10
4.5720
 20
-0.6350
 30
0.0000
  0
VERTEX
  8
29
 10
4.5067
 20
-0.8737
 30
0.0000
  0
SEQEND
  8
0
  0
POLYLINE
  8
29
 66
1
 10
0.0000
 20
0.0000
 30
0.0000
 40
0.1270
 41
0.1270
 70
0
  0
VERTEX
  8
29
 10
4.4454
 20
-0.8570
 30
0.0000
 42
1.0000
  0
VERTEX
  8
29
 10
4.5679
 20
-0.8905
 30
0.0000
  0
SEQEND
  8
0
  0
POLYLINE
  8
29
 66
1
 10
0.0000
 20
0.0000
 30
0.0000
 40
0.1270
 41
0.1270
 70
0
  0
VERTEX
  8
29
 10
4.6332
 20
-0.6518
 30
0.0000
 42
1.0000
  0
VERTEX
  8
29
 10
4.5108
 20
-0.6182
 30
0.0000
  0
SEQEND
  8
0
  0
POLYLINE
  8
29
 66
1
 10
0.0000
 20
0.0000
 30
0.0000
 40
0.2540
 41
0.2540
 70
0
  0
VERTEX
  8
29
 10
4.5067
 20
-0.8737
 30
0.0000
  0
VERTEX
  8
29
 10
4.4009
 20
-1.0975
 30
0.0000
  0
SEQEND
  8
0
  0
POLYLINE
  8
29
 66
1
 10
0.0000
 20
0.0000
 30
0.0000
 40
0.1270
 41
0.1270
 70
0
  0
VERTEX
  8
29
 10
4.3435
 20
-1.0703
 30
0.0000
 42
1.0000
  0
VERTEX
  8
29
 10
4.4583
 20
-1.1246
 30
0.0000
  0
SEQEND
  8
0
  0
POLYLINE
  8
29
 66
1
 10
0.0000
 20
0.0000
 30
0.0000
 40
0.1270
 41
0.1270
 70
0
  0
VERTEX
  8
29
 10
4.5641
 20
-0.9009
 30
0.0000
 42
1.0000
  0
VERTEX
  8
29
 10
4.4493
 20
-0.8466
 30
0.0000
  0
SEQEND
  8
0
  0
POLYLINE
  8
29
 66
1
 10
0.0000
 20
0.0000
 30
0.0000
 40
0.2540
 41
0.2540
 70
0
  0
VERTEX
  8
29
 10
4.4009
 20
-1.0975
 30
0.0000
  0
VERTEX
  8
29
 10
4.2578
 20
-1.2995
 30
0.0000
  0
SEQEND
  8
0
  0
POLYLINE
  8
29
 66
1
 10
0.0000
 20
0.0000
 30
0.0000
 40
0.1270
 41
0.1270
 70
0
  0
VERTEX
  8
29
 10
4.2060
 20
-1.2628
 30
0.0000
 42
1.0000
  0
VERTEX
  8
29
 10
4.3097
 20
-1.3362
 30
0.0000
  0
SEQEND
  8
0
  0
POLYLINE
  8
29
 66
1
 10
0.0000
 20
0.0000
 30
0.0000
 40
0.1270
 41
0.1270
 70
0
  0
VERTEX
  8
29
 10
4.4527
 20
-1.1342
 30
0.0000
 42
1.0000
  0
VERTEX
  8
29
 10
4.3491
 20
-1.0608
 30
0.0000
  0
SEQEND
  8
0
  0
POLYLINE
  8
29
 66
1
 10
0.0000
 20
0.0000
 30
0.0000
 40
0.2540
 41
0.2540
 70
0
  0
VERTEX
  8
29
 10
4.2578
 20
-1.2995
 30
0.0000
  0
VERTEX
  8
29
 10
4.0819
 20
-1.4736
 30
0.0000
  0
SEQEND
  8
0
  0
POLYLINE
  8
29
 66
1
 10
0.0000
 20
0.0000
 30
0.0000
 40
0.1270
 41
0.1270
 70
0
  0
VERTEX
  8
29
 10
4.0372
 20
-1.4284
 30
0.0000
 42
1.0000
  0
VERTEX
  8
29
 10
4.1266
 20
-1.5187
 30
0.0000
  0
SEQEND
  8
0
  0
POLYLINE
  8
29
 66
1
 10
0.0000
 20
0.0000
 30
0.0000
 40
0.1270
 41
0.1270
 70
0
  0
VERTEX
  8
29
 10
4.3025
 20
-1.3446
 30
0.0000
 42
1.0000
  0
VERTEX
  8
29
 10
4.2132
 20
-1.2543
 30
0.0000
  0
SEQEND
  8
0
  0
POLYLINE
  8
29
 66
1
 10
0.0000
 20
0.0000
 30
0.0000
 40
0.2540
 41
0.2540
 70
0
  0
VERTEX
  8
29
 10
4.0819
 20
-1.4736
 30
0.0000
  0
VERTEX
  8
29
 10
3.8784
 20
-1.6144
 30
0.0000
  0
SEQEND
  8
0
  0
POLYLINE
  8
29
 66
1
 10
0.0000
 20
0.0000
 30
0.0000
 40
0.1270
 41
0.1270
 70
0
  0
VERTEX
  8
29
 10
3.8423
 20
-1.5622
 30
0.0000
 42
1.0000
  0
VERTEX
  8
29
 10
3.9145
 20
-1.6666
 30
0.0000
  0
SEQEND
  8
0
  0
POLYLINE
  8
29
 66
1
 10
0.0000
 20
0.0000
 30
0.0000
 40
0.1270
 41
0.1270
 70
0
  0
VERTEX
  8
29
 10
4.1180
 20
-1.5258
 30
0.0000
 42
1.0000
  0
VERTEX
  8
29
 10
4.0458
 20
-1.4213
 30
0.0000
  0
SEQEND
  8
0
  0
POLYLINE
  8
29
 66
1
 10
0.0000
 20
0.0000
 30
0.0000
 40
0.2540
 41
0.2540
 70
0
  0
VERTEX
  8
29
 10
3.8784
 20
-1.6144
 30
0.0000
  0
VERTEX
  8
29
 10
3.6535
 20
-1.7178
 30
0.0000
  0
SEQEND
  8
0
  0
POLYLINE
  8
29
 66
1
 10
0.0000
 20
0.0000
 30
0.0000
 40
0.1270
 41
0.1270
 70
0
  0
VERTEX
  8
29
 10
3.6270
 20
-1.6601
 30
0.0000
 42
1.0000
  0
VERTEX
  8
29
 10
3.6801
 20
-1.7755
 30
0.0000
  0
SEQEND
  8
0
  0
POLYLINE
  8
29
 66
1
 10
0.0000
 20
0.0000
 30
0.0000
 40
0.1270
 41
0.1270
 70
0
  0
VERTEX
  8
29
 10
3.9049
 20
-1.6721
 30
0.0000
 42
1.0000
  0
VERTEX
  8
29
 10
3.8519
 20
-1.5567
 30
0.0000
  0
SEQEND
  8
0
  0
POLYLINE
  8
29
 66
1
 10
0.0000
 20
0.0000
 30
0.0000
 40
0.2540
 41
0.2540
 70
0
  0
VERTEX
  8
29
 10
3.6535
 20
-1.7178
 30
0.0000
  0
VERTEX
  8
29
 10
3.4141
 20
-1.7806
 30
0.0000
  0
SEQEND
  8
0
  0
POLYLINE
  8
29
 66
1
 10
0.0000
 20
0.0000
 30
0.0000
 40
0.1270
 41
0.1270
 70
0
  0
VERTEX
  8
29
 10
3.3980
 20
-1.7192
 30
0.0000
 42
1.0000
  0
VERTEX
  8
29
 10
3.4302
 20
-1.8420
 30
0.0000
  0
SEQEND
  8
0
  0
POLYLINE
  8
29
 66
1
 10
0.0000
 20
0.0000
 30
0.0000
 40
0.1270
 41
0.1270
 70
0
  0
VERTEX
  8
29
 10
3.6696
 20
-1.7793
 30
0.0000
 42
1.0000
  0
VERTEX
  8
29
 10
3.6374
 20
-1.6564
 30
0.0000
  0
SEQEND
  8
0
  0
POLYLINE
  8
29
 66
1
 10
0.0000
 20
0.0000
 30
0.0000
 40
0.2540
 41
0.2540
 70
0
  0
VERTEX
  8
29
 10
3.4141
 20
-1.7806
 30
0.0000
  0
VERTEX
  8
29
 10
3.1674
 20
-1.8009
 30
0.0000
  0
SEQEND
  8
0
  0
POLYLINE
  8
29
 66
1
 10
0.0000
 20
0.0000
 30
0.0000
 40
0.1270
 41
0.1270
 70
0
  0
VERTEX
  8
29
 10
3.1622
 20
-1.7376
 30
0.0000
 42
1.0000
  0
VERTEX
  8
29
 10
3.1726
 20
-1.8642
 30
0.0000
  0
SEQEND
  8
0
  0
POLYLINE
  8
29
 66
1
 10
0.0000
 20
0.0000
 30
0.0000
 40
0.1270
 41
0.1270
 70
0
  0
VERTEX
  8
29
 10
3.4193
 20
-1.8439
 30
0.0000
 42
1.0000
  0
VERTEX
  8
29
 10
3.4089
 20
-1.7173
 30
0.0000
  0
SEQEND
  8
0
  0
POLYLINE
  8
29
 66
1
 10
0.0000
 20
0.0000
 30
0.0000
 40
0.2540
 41
0.2540
 70
0
  0
VERTEX
  8
29
 10
3.1674
 20
-1.8009
 30
0.0000
  0
VERTEX
  8
29
 10
2.9210
 20
-1.7780
 30
0.0000
  0
SEQEND
  8
0
  0
POLYLINE
  8
29
 66
1
 10
0.0000
 20
0.0000
 30
0.0000
 40
0.1270
 41
0.1270
 70
0
  0
VERTEX
  8
29
 10
2.9269
 20
-1.7148
 30
0.0000
 42
1.0000
  0
VERTEX
  8
29
 10
2.9151
 20
-1.8412
 30
0.0000
  0
SEQEND
  8
0
  0
POLYLINE
  8
29
 66
1
 10
0.0000
 20
0.0000
 30
0.0000
 40
0.1270
 41
0.1270
 70
0
  0
VERTEX
  8
29
 10
3.1616
 20
-1.8641
 30
0.0000
 42
1.0000
  0
VERTEX
  8
29
 10
3.1733
 20
-1.7377
 30
0.0000
  0
SEQEND
  8
0
  0
POLYLINE
  8
29
 66
1
 10
0.0000
 20
0.0000
 30
0.0000
 40
0.2540
 41
0.2540
 70
0
  0
VERTEX
  8
29
 10
2.9210
 20
-1.7780
 30
0.0000
  0
VERTEX
  8
29
 10
3.4241
 20
-1.7780
 30
0.0000
  0
SEQEND
  8
0
  0
POLYLINE
  8
29
 66
1
 10
0.0000
 20
0.0000
 30
0.0000
 40
0.1270
 41
0.1270
 70
0
  0
VERTEX
  8
29
 10
3.4241
 20
-1.8415
 30
0.0000
 42
1.0000
  0
VERTEX
  8
29
 10
3.4241
 20
-1.7145
 30
0.0000
  0
SEQEND
  8
0
  0
POLYLINE
  8
29
 66
1
 10
0.0000
 20
0.0000
 30
0.0000
 40
0.1270
 41
0.1270
 70
0
  0
VERTEX
  8
29
 10
2.9210
 20
-1.7145
 30
0.0000
 42
1.0000
  0
VERTEX
  8
29
 10
2.9210
 20
-1.8415
 30
0.0000
  0
SEQEND
  8
0
  0
POLYLINE
  8
29
 66
1
 10
0.0000
 20
0.0000
 30
0.0000
 40
0.2540
 41
0.2540
 70
0
  0
VERTEX
  8
29
 10
2.9210
 20
-1.5240
 30
0.0000
  0
VERTEX
  8
29
 10
4.0090
 20
-1.5240
 30
0.0000
  0
SEQEND
  8
0
  0
POLYLINE
  8
29
 66
1
 10
0.0000
 20
0.0000
 30
0.0000
 40
0.1270
 41
0.1270
 70
0
  0
VERTEX
  8
29
 10
4.0090
 20
-1.5875
 30
0.0000
 42
1.0000
  0
VERTEX
  8
29
 10
4.0090
 20
-1.4605
 30
0.0000
  0
SEQEND
  8
0
  0
POLYLINE
  8
29
 66
1
 10
0.0000
 20
0.0000
 30
0.0000
 40
0.1270
 41
0.1270
 70
0
  0
VERTEX
  8
29
 10
2.9210
 20
-1.4605
 30
0.0000
 42
1.0000
  0
VERTEX
  8
29
 10
2.9210
 20
-1.5875
 30
0.0000
  0
SEQEND
  8
0
  0
POLYLINE
  8
29
 66
1
 10
0.0000
 20
0.0000
 30
0.0000
 40
0.2540
 41
0.2540
 70
0
  0
VERTEX
  8
29
 10
2.9210
 20
-1.2700
 30
0.0000
  0
VERTEX
  8
29
 10
4.2787
 20
-1.2700
 30
0.0000
  0
SEQEND
  8
0
  0
POLYLINE
  8
29
 66
1
 10
0.0000
 20
0.0000
 30
0.0000
 40
0.1270
 41
0.1270
 70
0
  0
VERTEX
  8
29
 10
4.2787
 20
-1.3335
 30
0.0000
 42
1.0000
  0
VERTEX
  8
29
 10
4.2787
 20
-1.2065
 30
0.0000
  0
SEQEND
  8
0
  0
POLYLINE
  8
29
 66
1
 10
0.0000
 20
0.0000
 30
0.0000
 40
0.1270
 41
0.1270
 70
0
  0
VERTEX
  8
29
 10
2.9210
 20
-1.2065
 30
0.0000
 42
1.0000
  0
VERTEX
  8
29
 10
2.9210
 20
-1.3335
 30
0.0000
  0
SEQEND
  8
0
  0
POLYLINE
  8
29
 66
1
 10
0.0000
 20
0.0000
 30
0.0000
 40
0.2540
 41
0.2540
 70
0
  0
VERTEX
  8
29
 10
2.9210
 20
-1.0160
 30
0.0000
  0
VERTEX
  8
29
 10
4.4394
 20
-1.0160
 30
0.0000
  0
SEQEND
  8
0
  0
POLYLINE
  8
29
 66
1
 10
0.0000
 20
0.0000
 30
0.0000
 40
0.1270
 41
0.1270
 70
0
  0
VERTEX
  8
29
 10
4.4394
 20
-1.0795
 30
0.0000
 42
1.0000
  0
VERTEX
  8
29
 10
4.4394
 20
-0.9525
 30
0.0000
  0
SEQEND
  8
0
  0
POLYLINE
  8
29
 66
1
 10
0.0000
 20
0.0000
 30
0.0000
 40
0.1270
 41
0.1270
 70
0
  0
VERTEX
  8
29
 10
2.9210
 20
-0.9525
 30
0.0000
 42
1.0000
  0
VERTEX
  8
29
 10
2.9210
 20
-1.0795
 30
0.0000
  0
SEQEND
  8
0
  0
POLYLINE
  8
29
 66
1
 10
0.0000
 20
0.0000
 30
0.0000
 40
0.2540
 41
0.2540
 70
0
  0
VERTEX
  8
29
 10
2.9210
 20
-0.7620
 30
0.0000
  0
VERTEX
  8
29
 10
4.5372
 20
-0.7620
 30
0.0000
  0
SEQEND
  8
0
  0
POLYLINE
  8
29
 66
1
 10
0.0000
 20
0.0000
 30
0.0000
 40
0.1270
 41
0.1270
 70
0
  0
VERTEX
  8
29
 10
4.5372
 20
-0.8255
 30
0.0000
 42
1.0000
  0
VERTEX
  8
29
 10
4.5372
 20
-0.6985
 30
0.0000
  0
SEQEND
  8
0
  0
POLYLINE
  8
29
 66
1
 10
0.0000
 20
0.0000
 30
0.0000
 40
0.1270
 41
0.1270
 70
0
  0
VERTEX
  8
29
 10
2.9210
 20
-0.6985
 30
0.0000
 42
1.0000
  0
VERTEX
  8
29
 10
2.9210
 20
-0.8255
 30
0.0000
  0
SEQEND
  8
0
  0
POLYLINE
  8
29
 66
1
 10
0.0000
 20
0.0000
 30
0.0000
 40
0.2540
 41
0.2540
 70
0
  0
VERTEX
  8
29
 10
2.9210
 20
-0.5080
 30
0.0000
  0
VERTEX
  8
29
 10
4.5720
 20
-0.5080
 30
0.0000
  0
SEQEND
  8
0
  0
POLYLINE
  8
29
 66
1
 10
0.0000
 20
0.0000
 30
0.0000
 40
0.1270
 41
0.1270
 70
0
  0
VERTEX
  8
29
 10
4.5720
 20
-0.5715
 30
0.0000
 42
1.0000
  0
VERTEX
  8
29
 10
4.5720
 20
-0.4445
 30
0.0000
  0
SEQEND
  8
0
  0
POLYLINE
  8
29
 66
1
 10
0.0000
 20
0.0000
 30
0.0000
 40
0.1270
 41
0.1270
 70
0
  0
VERTEX
  8
29
 10
2.9210
 20
-0.4445
 30
0.0000
 42
1.0000
  0
VERTEX
  8
29
 10
2.9210
 20
-0.5715
 30
0.0000
  0
SEQEND
  8
0
  0
POLYLINE
  8
29
 66
1
 10
0.0000
 20
0.0000
 30
0.0000
 40
0.2540
 41
0.2540
 70
0
  0
VERTEX
  8
29
 10
2.9210
 20
-0.2540
 30
0.0000
  0
VERTEX
  8
29
 10
4.5720
 20
-0.2540
 30
0.0000
  0
SEQEND
  8
0
  0
POLYLINE
  8
29
 66
1
 10
0.0000
 20
0.0000
 30
0.0000
 40
0.1270
 41
0.1270
 70
0
  0
VERTEX
  8
29
 10
4.5720
 20
-0.3175
 30
0.0000
 42
1.0000
  0
VERTEX
  8
29
 10
4.5720
 20
-0.1905
 30
0.0000
  0
SEQEND
  8
0
  0
POLYLINE
  8
29
 66
1
 10
0.0000
 20
0.0000
 30
0.0000
 40
0.1270
 41
0.1270
 70
0
  0
VERTEX
  8
29
 10
2.9210
 20
-0.1905
 30
0.0000
 42
1.0000
  0
VERTEX
  8
29
 10
2.9210
 20
-0.3175
 30
0.0000
  0
SEQEND
  8
0
  0
POLYLINE
  8
29
 66
1
 10
0.0000
 20
0.0000
 30
0.0000
 40
0.2540
 41
0.2540
 70
0
  0
VERTEX
  8
29
 10
2.9210
 20
0.0000
 30
0.0000
  0
VERTEX
  8
29
 10
4.5720
 20
0.0000
 30
0.0000
  0
SEQEND
  8
0
  0
POLYLINE
  8
29
 66
1
 10
0.0000
 20
0.0000
 30
0.0000
 40
0.1270
 41
0.1270
 70
0
  0
VERTEX
  8
29
 10
4.5720
 20
-0.0635
 30
0.0000
 42
1.0000
  0
VERTEX
  8
29
 10
4.5720
 20
0.0635
 30
0.0000
  0
SEQEND
  8
0
  0
POLYLINE
  8
29
 66
1
 10
0.0000
 20
0.0000
 30
0.0000
 40
0.1270
 41
0.1270
 70
0
  0
VERTEX
  8
29
 10
2.9210
 20
0.0635
 30
0.0000
 42
1.0000
  0
VERTEX
  8
29
 10
2.9210
 20
-0.0635
 30
0.0000
  0
SEQEND
  8
0
  0
POLYLINE
  8
29
 66
1
 10
0.0000
 20
0.0000
 30
0.0000
 40
0.2540
 41
0.2540
 70
0
  0
VERTEX
  8
29
 10
2.9210
 20
0.2540
 30
0.0000
  0
VERTEX
  8
29
 10
4.5720
 20
0.2540
 30
0.0000
  0
SEQEND
  8
0
  0
POLYLINE
  8
29
 66
1
 10
0.0000
 20
0.0000
 30
0.0000
 40
0.1270
 41
0.1270
 70
0
  0
VERTEX
  8
29
 10
4.5720
 20
0.1905
 30
0.0000
 42
1.0000
  0
VERTEX
  8
29
 10
4.5720
 20
0.3175
 30
0.0000
  0
SEQEND
  8
0
  0
POLYLINE
  8
29
 66
1
 10
0.0000
 20
0.0000
 30
0.0000
 40
0.1270
 41
0.1270
 70
0
  0
VERTEX
  8
29
 10
2.9210
 20
0.3175
 30
0.0000
 42
1.0000
  0
VERTEX
  8
29
 10
2.9210
 20
0.1905
 30
0.0000
  0
SEQEND
  8
0
  0
POLYLINE
  8
29
 66
1
 10
0.0000
 20
0.0000
 30
0.0000
 40
0.2540
 41
0.2540
 70
0
  0
VERTEX
  8
29
 10
2.9210
 20
0.5080
 30
0.0000
  0
VERTEX
  8
29
 10
4.5720
 20
0.5080
 30
0.0000
  0
SEQEND
  8
0
  0
POLYLINE
  8
29
 66
1
 10
0.0000
 20
0.0000
 30
0.0000
 40
0.1270
 41
0.1270
 70
0
  0
VERTEX
  8
29
 10
4.5720
 20
0.4445
 30
0.0000
 42
1.0000
  0
VERTEX
  8
29
 10
4.5720
 20
0.5715
 30
0.0000
  0
SEQEND
  8
0
  0
POLYLINE
  8
29
 66
1
 10
0.0000
 20
0.0000
 30
0.0000
 40
0.1270
 41
0.1270
 70
0
  0
VERTEX
  8
29
 10
2.9210
 20
0.5715
 30
0.0000
 42
1.0000
  0
VERTEX
  8
29
 10
2.9210
 20
0.4445
 30
0.0000
  0
SEQEND
  8
0
  0
POLYLINE
  8
29
 66
1
 10
0.0000
 20
0.0000
 30
0.0000
 40
0.2540
 41
0.2540
 70
0
  0
VERTEX
  8
29
 10
2.9210
 20
0.7620
 30
0.0000
  0
VERTEX
  8
29
 10
4.5437
 20
0.7620
 30
0.0000
  0
SEQEND
  8
0
  0
POLYLINE
  8
29
 66
1
 10
0.0000
 20
0.0000
 30
0.0000
 40
0.1270
 41
0.1270
 70
0
  0
VERTEX
  8
29
 10
4.5437
 20
0.6985
 30
0.0000
 42
1.0000
  0
VERTEX
  8
29
 10
4.5437
 20
0.8255
 30
0.0000
  0
SEQEND
  8
0
  0
POLYLINE
  8
29
 66
1
 10
0.0000
 20
0.0000
 30
0.0000
 40
0.1270
 41
0.1270
 70
0
  0
VERTEX
  8
29
 10
2.9210
 20
0.8255
 30
0.0000
 42
1.0000
  0
VERTEX
  8
29
 10
2.9210
 20
0.6985
 30
0.0000
  0
SEQEND
  8
0
  0
POLYLINE
  8
29
 66
1
 10
0.0000
 20
0.0000
 30
0.0000
 40
0.2540
 41
0.2540
 70
0
  0
VERTEX
  8
29
 10
2.9210
 20
1.0160
 30
0.0000
  0
VERTEX
  8
29
 10
4.4611
 20
1.0160
 30
0.0000
  0
SEQEND
  8
0
  0
POLYLINE
  8
29
 66
1
 10
0.0000
 20
0.0000
 30
0.0000
 40
0.1270
 41
0.1270
 70
0
  0
VERTEX
  8
29
 10
4.4611
 20
0.9525
 30
0.0000
 42
1.0000
  0
VERTEX
  8
29
 10
4.4611
 20
1.0795
 30
0.0000
  0
SEQEND
  8
0
  0
POLYLINE
  8
29
 66
1
 10
0.0000
 20
0.0000
 30
0.0000
 40
0.1270
 41
0.1270
 70
0
  0
VERTEX
  8
29
 10
2.9210
 20
1.0795
 30
0.0000
 42
1.0000
  0
VERTEX
  8
29
 10
2.9210
 20
0.9525
 30
0.0000
  0
SEQEND
  8
0
  0
POLYLINE
  8
29
 66
1
 10
0.0000
 20
0.0000
 30
0.0000
 40
0.2540
 41
0.2540
 70
0
  0
VERTEX
  8
29
 10
2.9210
 20
1.2700
 30
0.0000
  0
VERTEX
  8
29
 10
4.3129
 20
1.2700
 30
0.0000
  0
SEQEND
  8
0
  0
POLYLINE
  8
29
 66
1
 10
0.0000
 20
0.0000
 30
0.0000
 40
0.1270
 41
0.1270
 70
0
  0
VERTEX
  8
29
 10
4.3129
 20
1.2065
 30
0.0000
 42
1.0000
  0
VERTEX
  8
29
 10
4.3129
 20
1.3335
 30
0.0000
  0
SEQEND
  8
0
  0
POLYLINE
  8
29
 66
1
 10
0.0000
 20
0.0000
 30
0.0000
 40
0.1270
 41
0.1270
 70
0
  0
VERTEX
  8
29
 10
2.9210
 20
1.3335
 30
0.0000
 42
1.0000
  0
VERTEX
  8
29
 10
2.9210
 20
1.2065
 30
0.0000
  0
SEQEND
  8
0
  0
POLYLINE
  8
29
 66
1
 10
0.0000
 20
0.0000
 30
0.0000
 40
0.2540
 41
0.2540
 70
0
  0
VERTEX
  8
29
 10
2.9210
 20
1.5240
 30
0.0000
  0
VERTEX
  8
29
 10
4.0568
 20
1.5240
 30
0.0000
  0
SEQEND
  8
0
  0
POLYLINE
  8
29
 66
1
 10
0.0000
 20
0.0000
 30
0.0000
 40
0.1270
 41
0.1270
 70
0
  0
VERTEX
  8
29
 10
4.0568
 20
1.4605
 30
0.0000
 42
1.0000
  0
VERTEX
  8
29
 10
4.0568
 20
1.5875
 30
0.0000
  0
SEQEND
  8
0
  0
POLYLINE
  8
29
 66
1
 10
0.0000
 20
0.0000
 30
0.0000
 40
0.1270
 41
0.1270
 70
0
  0
VERTEX
  8
29
 10
2.9210
 20
1.5875
 30
0.0000
 42
1.0000
  0
VERTEX
  8
29
 10
2.9210
 20
1.4605
 30
0.0000
  0
SEQEND
  8
0
  0
POLYLINE
  8
29
 66
1
 10
0.0000
 20
0.0000
 30
0.0000
 40
0.2540
 41
0.2540
 70
0
  0
VERTEX
  8
29
 10
-2.9210
 20
1.7780
 30
0.0000
  0
VERTEX
  8
29
 10
-3.1473
 20
1.8249
 30
0.0000
  0
SEQEND
  8
0
  0
POLYLINE
  8
29
 66
1
 10
0.0000
 20
0.0000
 30
0.0000
 40
0.1270
 41
0.1270
 70
0
  0
VERTEX
  8
29
 10
-3.1344
 20
1.8871
 30
0.0000
 42
1.0000
  0
VERTEX
  8
29
 10
-3.1602
 20
1.7627
 30
0.0000
  0
SEQEND
  8
0
  0
POLYLINE
  8
29
 66
1
 10
0.0000
 20
0.0000
 30
0.0000
 40
0.1270
 41
0.1270
 70
0
  0
VERTEX
  8
29
 10
-2.9339
 20
1.7158
 30
0.0000
 42
1.0000
  0
VERTEX
  8
29
 10
-2.9081
 20
1.8402
 30
0.0000
  0
SEQEND
  8
0
  0
POLYLINE
  8
29
 66
1
 10
0.0000
 20
0.0000
 30
0.0000
 40
0.2540
 41
0.2540
 70
0
  0
VERTEX
  8
29
 10
-3.1473
 20
1.8249
 30
0.0000
  0
VERTEX
  8
29
 10
-3.3784
 20
1.8318
 30
0.0000
  0
SEQEND
  8
0
  0
POLYLINE
  8
29
 66
1
 10
0.0000
 20
0.0000
 30
0.0000
 40
0.1270
 41
0.1270
 70
0
  0
VERTEX
  8
29
 10
-3.3765
 20
1.8952
 30
0.0000
 42
1.0000
  0
VERTEX
  8
29
 10
-3.3802
 20
1.7683
 30
0.0000
  0
SEQEND
  8
0
  0
POLYLINE
  8
29
 66
1
 10
0.0000
 20
0.0000
 30
0.0000
 40
0.1270
 41
0.1270
 70
0
  0
VERTEX
  8
29
 10
-3.1492
 20
1.7614
 30
0.0000
 42
1.0000
  0
VERTEX
  8
29
 10
-3.1454
 20
1.8884
 30
0.0000
  0
SEQEND
  8
0
  0
POLYLINE
  8
29
 66
1
 10
0.0000
 20
0.0000
 30
0.0000
 40
0.2540
 41
0.2540
 70
0
  0
VERTEX
  8
29
 10
-3.3784
 20
1.8318
 30
0.0000
  0
VERTEX
  8
29
 10
-3.6071
 20
1.7984
 30
0.0000
  0
SEQEND
  8
0
  0
POLYLINE
  8
29
 66
1
 10
0.0000
 20
0.0000
 30
0.0000
 40
0.1270
 41
0.1270
 70
0
  0
VERTEX
  8
29
 10
-3.6162
 20
1.8613
 30
0.0000
 42
1.0000
  0
VERTEX
  8
29
 10
-3.5979
 20
1.7356
 30
0.0000
  0
SEQEND
  8
0
  0
POLYLINE
  8
29
 66
1
 10
0.0000
 20
0.0000
 30
0.0000
 40
0.1270
 41
0.1270
 70
0
  0
VERTEX
  8
29
 10
-3.3692
 20
1.7689
 30
0.0000
 42
1.0000
  0
VERTEX
  8
29
 10
-3.3875
 20
1.8946
 30
0.0000
  0
SEQEND
  8
0
  0
POLYLINE
  8
29
 66
1
 10
0.0000
 20
0.0000
 30
0.0000
 40
0.2540
 41
0.2540
 70
0
  0
VERTEX
  8
29
 10
-3.6071
 20
1.7984
 30
0.0000
  0
VERTEX
  8
29
 10
-3.8265
 20
1.7259
 30
0.0000
  0
SEQEND
  8
0
  0
POLYLINE
  8
29
 66
1
 10
0.0000
 20
0.0000
 30
0.0000
 40
0.1270
 41
0.1270
 70
0
  0
VERTEX
  8
29
 10
-3.8464
 20
1.7861
 30
0.0000
 42
1.0000
  0
VERTEX
  8
29
 10
-3.8066
 20
1.6656
 30
0.0000
  0
SEQEND
  8
0
  0
POLYLINE
  8
29
 66
1
 10
0.0000
 20
0.0000
 30
0.0000
 40
0.1270
 41
0.1270
 70
0
  0
VERTEX
  8
29
 10
-3.5871
 20
1.7381
 30
0.0000
 42
1.0000
  0
VERTEX
  8
29
 10
-3.6270
 20
1.8587
 30
0.0000
  0
SEQEND
  8
0
  0
POLYLINE
  8
29
 66
1
 10
0.0000
 20
0.0000
 30
0.0000
 40
0.2540
 41
0.2540
 70
0
  0
VERTEX
  8
29
 10
-3.8265
 20
1.7259
 30
0.0000
  0
VERTEX
  8
29
 10
-4.0300
 20
1.6163
 30
0.0000
  0
SEQEND
  8
0
  0
POLYLINE
  8
29
 66
1
 10
0.0000
 20
0.0000
 30
0.0000
 40
0.1270
 41
0.1270
 70
0
  0
VERTEX
  8
29
 10
-4.0601
 20
1.6722
 30
0.0000
 42
1.0000
  0
VERTEX
  8
29
 10
-3.9999
 20
1.5604
 30
0.0000
  0
SEQEND
  8
0
  0
POLYLINE
  8
29
 66
1
 10
0.0000
 20
0.0000
 30
0.0000
 40
0.1270
 41
0.1270
 70
0
  0
VERTEX
  8
29
 10
-3.7964
 20
1.6699
 30
0.0000
 42
1.0000
  0
VERTEX
  8
29
 10
-3.8566
 20
1.7818
 30
0.0000
  0
SEQEND
  8
0
  0
POLYLINE
  8
29
 66
1
 10
0.0000
 20
0.0000
 30
0.0000
 40
0.2540
 41
0.2540
 70
0
  0
VERTEX
  8
29
 10
-4.0300
 20
1.6163
 30
0.0000
  0
VERTEX
  8
29
 10
-4.2114
 20
1.4730
 30
0.0000
  0
SEQEND
  8
0
  0
POLYLINE
  8
29
 66
1
 10
0.0000
 20
0.0000
 30
0.0000
 40
0.1270
 41
0.1270
 70
0
  0
VERTEX
  8
29
 10
-4.2508
 20
1.5228
 30
0.0000
 42
1.0000
  0
VERTEX
  8
29
 10
-4.1720
 20
1.4232
 30
0.0000
  0
SEQEND
  8
0
  0
POLYLINE
  8
29
 66
1
 10
0.0000
 20
0.0000
 30
0.0000
 40
0.1270
 41
0.1270
 70
0
  0
VERTEX
  8
29
 10
-3.9907
 20
1.5664
 30
0.0000
 42
1.0000
  0
VERTEX
  8
29
 10
-4.0694
 20
1.6661
 30
0.0000
  0
SEQEND
  8
0
  0
POLYLINE
  8
29
 66
1
 10
0.0000
 20
0.0000
 30
0.0000
 40
0.2540
 41
0.2540
 70
0
  0
VERTEX
  8
29
 10
-4.2114
 20
1.4730
 30
0.0000
  0
VERTEX
  8
29
 10
-4.3651
 20
1.3004
 30
0.0000
  0
SEQEND
  8
0
  0
POLYLINE
  8
29
 66
1
 10
0.0000
 20
0.0000
 30
0.0000
 40
0.1270
 41
0.1270
 70
0
  0
VERTEX
  8
29
 10
-4.4126
 20
1.3427
 30
0.0000
 42
1.0000
  0
VERTEX
  8
29
 10
-4.3177
 20
1.2582
 30
0.0000
  0
SEQEND
  8
0
  0
POLYLINE
  8
29
 66
1
 10
0.0000
 20
0.0000
 30
0.0000
 40
0.1270
 41
0.1270
 70
0
  0
VERTEX
  8
29
 10
-4.1640
 20
1.4308
 30
0.0000
 42
1.0000
  0
VERTEX
  8
29
 10
-4.2588
 20
1.5152
 30
0.0000
  0
SEQEND
  8
0
  0
POLYLINE
  8
29
 66
1
 10
0.0000
 20
0.0000
 30
0.0000
 40
0.2540
 41
0.2540
 70
0
  0
VERTEX
  8
29
 10
-4.3651
 20
1.3004
 30
0.0000
  0
VERTEX
  8
29
 10
-4.4866
 20
1.1038
 30
0.0000
  0
SEQEND
  8
0
  0
POLYLINE
  8
29
 66
1
 10
0.0000
 20
0.0000
 30
0.0000
 40
0.1270
 41
0.1270
 70
0
  0
VERTEX
  8
29
 10
-4.5406
 20
1.1371
 30
0.0000
 42
1.0000
  0
VERTEX
  8
29
 10
-4.4325
 20
1.0704
 30
0.0000
  0
SEQEND
  8
0
  0
POLYLINE
  8
29
 66
1
 10
0.0000
 20
0.0000
 30
0.0000
 40
0.1270
 41
0.1270
 70
0
  0
VERTEX
  8
29
 10
-4.3111
 20
1.2671
 30
0.0000
 42
1.0000
  0
VERTEX
  8
29
 10
-4.4192
 20
1.3338
 30
0.0000
  0
SEQEND
  8
0
  0
POLYLINE
  8
29
 66
1
 10
0.0000
 20
0.0000
 30
0.0000
 40
0.2540
 41
0.2540
 70
0
  0
VERTEX
  8
29
 10
-4.4866
 20
1.1038
 30
0.0000
  0
VERTEX
  8
29
 10
-4.5720
 20
0.8890
 30
0.0000
  0
SEQEND
  8
0
  0
POLYLINE
  8
29
 66
1
 10
0.0000
 20
0.0000
 30
0.0000
 40
0.1270
 41
0.1270
 70
0
  0
VERTEX
  8
29
 10
-4.6310
 20
0.9125
 30
0.0000
 42
1.0000
  0
VERTEX
  8
29
 10
-4.5130
 20
0.8655
 30
0.0000
  0
SEQEND
  8
0
  0
POLYLINE
  8
29
 66
1
 10
0.0000
 20
0.0000
 30
0.0000
 40
0.1270
 41
0.1270
 70
0
  0
VERTEX
  8
29
 10
-4.4276
 20
1.0803
 30
0.0000
 42
1.0000
  0
VERTEX
  8
29
 10
-4.5456
 20
1.1272
 30
0.0000
  0
SEQEND
  8
0
  0
POLYLINE
  8
29
 66
1
 10
0.0000
 20
0.0000
 30
0.0000
 40
0.2540
 41
0.2540
 70
0
  0
VERTEX
  8
29
 10
-4.5720
 20
0.8890
 30
0.0000
  0
VERTEX
  8
29
 10
-4.5720
 20
-0.7620
 30
0.0000
  0
SEQEND
  8
0
  0
POLYLINE
  8
29
 66
1
 10
0.0000
 20
0.0000
 30
0.0000
 40
0.1270
 41
0.1270
 70
0
  0
VERTEX
  8
29
 10
-4.6355
 20
-0.7620
 30
0.0000
 42
1.0000
  0
VERTEX
  8
29
 10
-4.5085
 20
-0.7620
 30
0.0000
  0
SEQEND
  8
0
  0
POLYLINE
  8
29
 66
1
 10
0.0000
 20
0.0000
 30
0.0000
 40
0.1270
 41
0.1270
 70
0
  0
VERTEX
  8
29
 10
-4.5085
 20
0.8890
 30
0.0000
 42
1.0000
  0
VERTEX
  8
29
 10
-4.6355
 20
0.8890
 30
0.0000
  0
SEQEND
  8
0
  0
POLYLINE
  8
29
 66
1
 10
0.0000
 20
0.0000
 30
0.0000
 40
0.2540
 41
0.2540
 70
0
  0
VERTEX
  8
29
 10
-4.5720
 20
-0.7620
 30
0.0000
  0
VERTEX
  8
29
 10
-4.4966
 20
-0.9887
 30
0.0000
  0
SEQEND
  8
0
  0
POLYLINE
  8
29
 66
1
 10
0.0000
 20
0.0000
 30
0.0000
 40
0.1270
 41
0.1270
 70
0
  0
VERTEX
  8
29
 10
-4.5569
 20
-1.0088
 30
0.0000
 42
1.0000
  0
VERTEX
  8
29
 10
-4.4364
 20
-0.9687
 30
0.0000
  0
SEQEND
  8
0
  0
POLYLINE
  8
29
 66
1
 10
0.0000
 20
0.0000
 30
0.0000
 40
0.1270
 41
0.1270
 70
0
  0
VERTEX
  8
29
 10
-4.5117
 20
-0.7420
 30
0.0000
 42
1.0000
  0
VERTEX
  8
29
 10
-4.6323
 20
-0.7820
 30
0.0000
  0
SEQEND
  8
0
  0
POLYLINE
  8
29
 66
1
 10
0.0000
 20
0.0000
 30
0.0000
 40
0.2540
 41
0.2540
 70
0
  0
VERTEX
  8
29
 10
-4.4966
 20
-0.9887
 30
0.0000
  0
VERTEX
  8
29
 10
-4.3830
 20
-1.1989
 30
0.0000
  0
SEQEND
  8
0
  0
POLYLINE
  8
29
 66
1
 10
0.0000
 20
0.0000
 30
0.0000
 40
0.1270
 41
0.1270
 70
0
  0
VERTEX
  8
29
 10
-4.4388
 20
-1.2291
 30
0.0000
 42
1.0000
  0
VERTEX
  8
29
 10
-4.3271
 20
-1.1687
 30
0.0000
  0
SEQEND
  8
0
  0
POLYLINE
  8
29
 66
1
 10
0.0000
 20
0.0000
 30
0.0000
 40
0.1270
 41
0.1270
 70
0
  0
VERTEX
  8
29
 10
-4.4407
 20
-0.9585
 30
0.0000
 42
1.0000
  0
VERTEX
  8
29
 10
-4.5525
 20
-1.0189
 30
0.0000
  0
SEQEND
  8
0
  0
POLYLINE
  8
29
 66
1
 10
0.0000
 20
0.0000
 30
0.0000
 40
0.2540
 41
0.2540
 70
0
  0
VERTEX
  8
29
 10
-4.3830
 20
-1.1989
 30
0.0000
  0
VERTEX
  8
29
 10
-4.2346
 20
-1.3862
 30
0.0000
  0
SEQEND
  8
0
  0
POLYLINE
  8
29
 66
1
 10
0.0000
 20
0.0000
 30
0.0000
 40
0.1270
 41
0.1270
 70
0
  0
VERTEX
  8
29
 10
-4.2844
 20
-1.4256
 30
0.0000
 42
1.0000
  0
VERTEX
  8
29
 10
-4.1848
 20
-1.3468
 30
0.0000
  0
SEQEND
  8
0
  0
POLYLINE
  8
29
 66
1
 10
0.0000
 20
0.0000
 30
0.0000
 40
0.1270
 41
0.1270
 70
0
  0
VERTEX
  8
29
 10
-4.3332
 20
-1.1595
 30
0.0000
 42
1.0000
  0
VERTEX
  8
29
 10
-4.4328
 20
-1.2384
 30
0.0000
  0
SEQEND
  8
0
  0
POLYLINE
  8
29
 66
1
 10
0.0000
 20
0.0000
 30
0.0000
 40
0.2540
 41
0.2540
 70
0
  0
VERTEX
  8
29
 10
-4.2346
 20
-1.3862
 30
0.0000
  0
VERTEX
  8
29
 10
-4.0559
 20
-1.5449
 30
0.0000
  0
SEQEND
  8
0
  0
POLYLINE
  8
29
 66
1
 10
0.0000
 20
0.0000
 30
0.0000
 40
0.1270
 41
0.1270
 70
0
  0
VERTEX
  8
29
 10
-4.0981
 20
-1.5924
 30
0.0000
 42
1.0000
  0
VERTEX
  8
29
 10
-4.0138
 20
-1.4974
 30
0.0000
  0
SEQEND
  8
0
  0
POLYLINE
  8
29
 66
1
 10
0.0000
 20
0.0000
 30
0.0000
 40
0.1270
 41
0.1270
 70
0
  0
VERTEX
  8
29
 10
-4.1924
 20
-1.3387
 30
0.0000
 42
1.0000
  0
VERTEX
  8
29
 10
-4.2768
 20
-1.4337
 30
0.0000
  0
SEQEND
  8
0
  0
POLYLINE
  8
29
 66
1
 10
0.0000
 20
0.0000
 30
0.0000
 40
0.2540
 41
0.2540
 70
0
  0
VERTEX
  8
29
 10
-4.0559
 20
-1.5449
 30
0.0000
  0
VERTEX
  8
29
 10
-3.8524
 20
-1.6701
 30
0.0000
  0
SEQEND
  8
0
  0
POLYLINE
  8
29
 66
1
 10
0.0000
 20
0.0000
 30
0.0000
 40
0.1270
 41
0.1270
 70
0
  0
VERTEX
  8
29
 10
-3.8857
 20
-1.7242
 30
0.0000
 42
1.0000
  0
VERTEX
  8
29
 10
-3.8192
 20
-1.6160
 30
0.0000
  0
SEQEND
  8
0
  0
POLYLINE
  8
29
 66
1
 10
0.0000
 20
0.0000
 30
0.0000
 40
0.1270
 41
0.1270
 70
0
  0
VERTEX
  8
29
 10
-4.0227
 20
-1.4908
 30
0.0000
 42
1.0000
  0
VERTEX
  8
29
 10
-4.0892
 20
-1.5990
 30
0.0000
  0
SEQEND
  8
0
  0
POLYLINE
  8
29
 66
1
 10
0.0000
 20
0.0000
 30
0.0000
 40
0.2540
 41
0.2540
 70
0
  0
VERTEX
  8
29
 10
-3.8524
 20
-1.6701
 30
0.0000
  0
VERTEX
  8
29
 10
-3.6303
 20
-1.7581
 30
0.0000
  0
SEQEND
  8
0
  0
POLYLINE
  8
29
 66
1
 10
0.0000
 20
0.0000
 30
0.0000
 40
0.1270
 41
0.1270
 70
0
  0
VERTEX
  8
29
 10
-3.6537
 20
-1.8171
 30
0.0000
 42
1.0000
  0
VERTEX
  8
29
 10
-3.6069
 20
-1.6991
 30
0.0000
  0
SEQEND
  8
0
  0
POLYLINE
  8
29
 66
1
 10
0.0000
 20
0.0000
 30
0.0000
 40
0.1270
 41
0.1270
 70
0
  0
VERTEX
  8
29
 10
-3.8291
 20
-1.6111
 30
0.0000
 42
1.0000
  0
VERTEX
  8
29
 10
-3.8758
 20
-1.7291
 30
0.0000
  0
SEQEND
  8
0
  0
POLYLINE
  8
29
 66
1
 10
0.0000
 20
0.0000
 30
0.0000
 40
0.2540
 41
0.2540
 70
0
  0
VERTEX
  8
29
 10
-3.6303
 20
-1.7581
 30
0.0000
  0
VERTEX
  8
29
 10
-3.3962
 20
-1.8062
 30
0.0000
  0
SEQEND
  8
0
  0
POLYLINE
  8
29
 66
1
 10
0.0000
 20
0.0000
 30
0.0000
 40
0.1270
 41
0.1270
 70
0
  0
VERTEX
  8
29
 10
-3.4090
 20
-1.8684
 30
0.0000
 42
1.0000
  0
VERTEX
  8
29
 10
-3.3835
 20
-1.7440
 30
0.0000
  0
SEQEND
  8
0
  0
POLYLINE
  8
29
 66
1
 10
0.0000
 20
0.0000
 30
0.0000
 40
0.1270
 41
0.1270
 70
0
  0
VERTEX
  8
29
 10
-3.6175
 20
-1.6959
 30
0.0000
 42
1.0000
  0
VERTEX
  8
29
 10
-3.6431
 20
-1.8203
 30
0.0000
  0
SEQEND
  8
0
  0
POLYLINE
  8
29
 66
1
 10
0.0000
 20
0.0000
 30
0.0000
 40
0.2540
 41
0.2540
 70
0
  0
VERTEX
  8
29
 10
-3.3962
 20
-1.8062
 30
0.0000
  0
VERTEX
  8
29
 10
-3.1574
 20
-1.8129
 30
0.0000
  0
SEQEND
  8
0
  0
POLYLINE
  8
29
 66
1
 10
0.0000
 20
0.0000
 30
0.0000
 40
0.1270
 41
0.1270
 70
0
  0
VERTEX
  8
29
 10
-3.1592
 20
-1.8764
 30
0.0000
 42
1.0000
  0
VERTEX
  8
29
 10
-3.1556
 20
-1.7494
 30
0.0000
  0
SEQEND
  8
0
  0
POLYLINE
  8
29
 66
1
 10
0.0000
 20
0.0000
 30
0.0000
 40
0.1270
 41
0.1270
 70
0
  0
VERTEX
  8
29
 10
-3.3944
 20
-1.7427
 30
0.0000
 42
1.0000
  0
VERTEX
  8
29
 10
-3.3980
 20
-1.8696
 30
0.0000
  0
SEQEND
  8
0
  0
POLYLINE
  8
29
 66
1
 10
0.0000
 20
0.0000
 30
0.0000
 40
0.2540
 41
0.2540
 70
0
  0
VERTEX
  8
29
 10
-3.1574
 20
-1.8129
 30
0.0000
  0
VERTEX
  8
29
 10
-2.9210
 20
-1.7780
 30
0.0000
  0
SEQEND
  8
0
  0
POLYLINE
  8
29
 66
1
 10
0.0000
 20
0.0000
 30
0.0000
 40
0.1270
 41
0.1270
 70
0
  0
VERTEX
  8
29
 10
-2.9117
 20
-1.8408
 30
0.0000
 42
1.0000
  0
VERTEX
  8
29
 10
-2.9303
 20
-1.7152
 30
0.0000
  0
SEQEND
  8
0
  0
POLYLINE
  8
29
 66
1
 10
0.0000
 20
0.0000
 30
0.0000
 40
0.1270
 41
0.1270
 70
0
  0
VERTEX
  8
29
 10
-3.1667
 20
-1.7501
 30
0.0000
 42
1.0000
  0
VERTEX
  8
29
 10
-3.1481
 20
-1.8757
 30
0.0000
  0
SEQEND
  8
0
  0
POLYLINE
  8
29
 66
1
 10
0.0000
 20
0.0000
 30
0.0000
 40
0.2540
 41
0.2540
 70
0
  0
VERTEX
  8
29
 10
-2.9210
 20
-1.7780
 30
0.0000
  0
VERTEX
  8
29
 10
-2.9210
 20
1.7780
 30
0.0000
  0
SEQEND
  8
0
  0
POLYLINE
  8
29
 66
1
 10
0.0000
 20
0.0000
 30
0.0000
 40
0.1270
 41
0.1270
 70
0
  0
VERTEX
  8
29
 10
-2.8575
 20
1.7780
 30
0.0000
 42
1.0000
  0
VERTEX
  8
29
 10
-2.9845
 20
1.7780
 30
0.0000
  0
SEQEND
  8
0
  0
POLYLINE
  8
29
 66
1
 10
0.0000
 20
0.0000
 30
0.0000
 40
0.1270
 41
0.1270
 70
0
  0
VERTEX
  8
29
 10
-2.9845
 20
-1.7780
 30
0.0000
 42
1.0000
  0
VERTEX
  8
29
 10
-2.8575
 20
-1.7780
 30
0.0000
  0
SEQEND
  8
0
  0
POLYLINE
  8
29
 66
1
 10
0.0000
 20
0.0000
 30
0.0000
 40
0.2540
 41
0.2540
 70
0
  0
VERTEX
  8
29
 10
-3.5334
 20
-1.7780
 30
0.0000
  0
VERTEX
  8
29
 10
-2.9210
 20
-1.7780
 30
0.0000
  0
SEQEND
  8
0
  0
POLYLINE
  8
29
 66
1
 10
0.0000
 20
0.0000
 30
0.0000
 40
0.1270
 41
0.1270
 70
0
  0
VERTEX
  8
29
 10
-2.9210
 20
-1.8415
 30
0.0000
 42
1.0000
  0
VERTEX
  8
29
 10
-2.9210
 20
-1.7145
 30
0.0000
  0
SEQEND
  8
0
  0
POLYLINE
  8
29
 66
1
 10
0.0000
 20
0.0000
 30
0.0000
 40
0.1270
 41
0.1270
 70
0
  0
VERTEX
  8
29
 10
-3.5334
 20
-1.7145
 30
0.0000
 42
1.0000
  0
VERTEX
  8
29
 10
-3.5334
 20
-1.8415
 30
0.0000
  0
SEQEND
  8
0
  0
POLYLINE
  8
29
 66
1
 10
0.0000
 20
0.0000
 30
0.0000
 40
0.2540
 41
0.2540
 70
0
  0
VERTEX
  8
29
 10
-4.0794
 20
-1.5240
 30
0.0000
  0
VERTEX
  8
29
 10
-2.9210
 20
-1.5240
 30
0.0000
  0
SEQEND
  8
0
  0
POLYLINE
  8
29
 66
1
 10
0.0000
 20
0.0000
 30
0.0000
 40
0.1270
 41
0.1270
 70
0
  0
VERTEX
  8
29
 10
-2.9210
 20
-1.5875
 30
0.0000
 42
1.0000
  0
VERTEX
  8
29
 10
-2.9210
 20
-1.4605
 30
0.0000
  0
SEQEND
  8
0
  0
POLYLINE
  8
29
 66
1
 10
0.0000
 20
0.0000
 30
0.0000
 40
0.1270
 41
0.1270
 70
0
  0
VERTEX
  8
29
 10
-4.0794
 20
-1.4605
 30
0.0000
 42
1.0000
  0
VERTEX
  8
29
 10
-4.0794
 20
-1.5875
 30
0.0000
  0
SEQEND
  8
0
  0
POLYLINE
  8
29
 66
1
 10
0.0000
 20
0.0000
 30
0.0000
 40
0.2540
 41
0.2540
 70
0
  0
VERTEX
  8
29
 10
-4.3267
 20
-1.2700
 30
0.0000
  0
VERTEX
  8
29
 10
-2.9210
 20
-1.2700
 30
0.0000
  0
SEQEND
  8
0
  0
POLYLINE
  8
29
 66
1
 10
0.0000
 20
0.0000
 30
0.0000
 40
0.1270
 41
0.1270
 70
0
  0
VERTEX
  8
29
 10
-2.9210
 20
-1.3335
 30
0.0000
 42
1.0000
  0
VERTEX
  8
29
 10
-2.9210
 20
-1.2065
 30
0.0000
  0
SEQEND
  8
0
  0
POLYLINE
  8
29
 66
1
 10
0.0000
 20
0.0000
 30
0.0000
 40
0.1270
 41
0.1270
 70
0
  0
VERTEX
  8
29
 10
-4.3267
 20
-1.2065
 30
0.0000
 42
1.0000
  0
VERTEX
  8
29
 10
-4.3267
 20
-1.3335
 30
0.0000
  0
SEQEND
  8
0
  0
POLYLINE
  8
29
 66
1
 10
0.0000
 20
0.0000
 30
0.0000
 40
0.2540
 41
0.2540
 70
0
  0
VERTEX
  8
29
 10
-4.4819
 20
-1.0160
 30
0.0000
  0
VERTEX
  8
29
 10
-2.9210
 20
-1.0160
 30
0.0000
  0
SEQEND
  8
0
  0
POLYLINE
  8
29
 66
1
 10
0.0000
 20
0.0000
 30
0.0000
 40
0.1270
 41
0.1270
 70
0
  0
VERTEX
  8
29
 10
-2.9210
 20
-1.0795
 30
0.0000
 42
1.0000
  0
VERTEX
  8
29
 10
-2.9210
 20
-0.9525
 30
0.0000
  0
SEQEND
  8
0
  0
POLYLINE
  8
29
 66
1
 10
0.0000
 20
0.0000
 30
0.0000
 40
0.1270
 41
0.1270
 70
0
  0
VERTEX
  8
29
 10
-4.4819
 20
-0.9525
 30
0.0000
 42
1.0000
  0
VERTEX
  8
29
 10
-4.4819
 20
-1.0795
 30
0.0000
  0
SEQEND
  8
0
  0
POLYLINE
  8
29
 66
1
 10
0.0000
 20
0.0000
 30
0.0000
 40
0.2540
 41
0.2540
 70
0
  0
VERTEX
  8
29
 10
-4.5720
 20
-0.7620
 30
0.0000
  0
VERTEX
  8
29
 10
-2.9210
 20
-0.7620
 30
0.0000
  0
SEQEND
  8
0
  0
POLYLINE
  8
29
 66
1
 10
0.0000
 20
0.0000
 30
0.0000
 40
0.1270
 41
0.1270
 70
0
  0
VERTEX
  8
29
 10
-2.9210
 20
-0.8255
 30
0.0000
 42
1.0000
  0
VERTEX
  8
29
 10
-2.9210
 20
-0.6985
 30
0.0000
  0
SEQEND
  8
0
  0
POLYLINE
  8
29
 66
1
 10
0.0000
 20
0.0000
 30
0.0000
 40
0.1270
 41
0.1270
 70
0
  0
VERTEX
  8
29
 10
-4.5720
 20
-0.6985
 30
0.0000
 42
1.0000
  0
VERTEX
  8
29
 10
-4.5720
 20
-0.8255
 30
0.0000
  0
SEQEND
  8
0
  0
POLYLINE
  8
29
 66
1
 10
0.0000
 20
0.0000
 30
0.0000
 40
0.2540
 41
0.2540
 70
0
  0
VERTEX
  8
29
 10
-4.5720
 20
-0.5080
 30
0.0000
  0
VERTEX
  8
29
 10
-2.9210
 20
-0.5080
 30
0.0000
  0
SEQEND
  8
0
  0
POLYLINE
  8
29
 66
1
 10
0.0000
 20
0.0000
 30
0.0000
 40
0.1270
 41
0.1270
 70
0
  0
VERTEX
  8
29
 10
-2.9210
 20
-0.5715
 30
0.0000
 42
1.0000
  0
VERTEX
  8
29
 10
-2.9210
 20
-0.4445
 30
0.0000
  0
SEQEND
  8
0
  0
POLYLINE
  8
29
 66
1
 10
0.0000
 20
0.0000
 30
0.0000
 40
0.1270
 41
0.1270
 70
0
  0
VERTEX
  8
29
 10
-4.5720
 20
-0.4445
 30
0.0000
 42
1.0000
  0
VERTEX
  8
29
 10
-4.5720
 20
-0.5715
 30
0.0000
  0
SEQEND
  8
0
  0
POLYLINE
  8
29
 66
1
 10
0.0000
 20
0.0000
 30
0.0000
 40
0.2540
 41
0.2540
 70
0
  0
VERTEX
  8
29
 10
-4.5720
 20
-0.2540
 30
0.0000
  0
VERTEX
  8
29
 10
-2.9210
 20
-0.2540
 30
0.0000
  0
SEQEND
  8
0
  0
POLYLINE
  8
29
 66
1
 10
0.0000
 20
0.0000
 30
0.0000
 40
0.1270
 41
0.1270
 70
0
  0
VERTEX
  8
29
 10
-2.9210
 20
-0.3175
 30
0.0000
 42
1.0000
  0
VERTEX
  8
29
 10
-2.9210
 20
-0.1905
 30
0.0000
  0
SEQEND
  8
0
  0
POLYLINE
  8
29
 66
1
 10
0.0000
 20
0.0000
 30
0.0000
 40
0.1270
 41
0.1270
 70
0
  0
VERTEX
  8
29
 10
-4.5720
 20
-0.1905
 30
0.0000
 42
1.0000
  0
VERTEX
  8
29
 10
-4.5720
 20
-0.3175
 30
0.0000
  0
SEQEND
  8
0
  0
POLYLINE
  8
29
 66
1
 10
0.0000
 20
0.0000
 30
0.0000
 40
0.2540
 41
0.2540
 70
0
  0
VERTEX
  8
29
 10
-4.5720
 20
0.0000
 30
0.0000
  0
VERTEX
  8
29
 10
-2.9210
 20
0.0000
 30
0.0000
  0
SEQEND
  8
0
  0
POLYLINE
  8
29
 66
1
 10
0.0000
 20
0.0000
 30
0.0000
 40
0.1270
 41
0.1270
 70
0
  0
VERTEX
  8
29
 10
-2.9210
 20
-0.0635
 30
0.0000
 42
1.0000
  0
VERTEX
  8
29
 10
-2.9210
 20
0.0635
 30
0.0000
  0
SEQEND
  8
0
  0
POLYLINE
  8
29
 66
1
 10
0.0000
 20
0.0000
 30
0.0000
 40
0.1270
 41
0.1270
 70
0
  0
VERTEX
  8
29
 10
-4.5720
 20
0.0635
 30
0.0000
 42
1.0000
  0
VERTEX
  8
29
 10
-4.5720
 20
-0.0635
 30
0.0000
  0
SEQEND
  8
0
  0
POLYLINE
  8
29
 66
1
 10
0.0000
 20
0.0000
 30
0.0000
 40
0.2540
 41
0.2540
 70
0
  0
VERTEX
  8
29
 10
-4.5720
 20
0.2540
 30
0.0000
  0
VERTEX
  8
29
 10
-2.9210
 20
0.2540
 30
0.0000
  0
SEQEND
  8
0
  0
POLYLINE
  8
29
 66
1
 10
0.0000
 20
0.0000
 30
0.0000
 40
0.1270
 41
0.1270
 70
0
  0
VERTEX
  8
29
 10
-2.9210
 20
0.1905
 30
0.0000
 42
1.0000
  0
VERTEX
  8
29
 10
-2.9210
 20
0.3175
 30
0.0000
  0
SEQEND
  8
0
  0
POLYLINE
  8
29
 66
1
 10
0.0000
 20
0.0000
 30
0.0000
 40
0.1270
 41
0.1270
 70
0
  0
VERTEX
  8
29
 10
-4.5720
 20
0.3175
 30
0.0000
 42
1.0000
  0
VERTEX
  8
29
 10
-4.5720
 20
0.1905
 30
0.0000
  0
SEQEND
  8
0
  0
POLYLINE
  8
29
 66
1
 10
0.0000
 20
0.0000
 30
0.0000
 40
0.2540
 41
0.2540
 70
0
  0
VERTEX
  8
29
 10
-4.5720
 20
0.5080
 30
0.0000
  0
VERTEX
  8
29
 10
-2.9210
 20
0.5080
 30
0.0000
  0
SEQEND
  8
0
  0
POLYLINE
  8
29
 66
1
 10
0.0000
 20
0.0000
 30
0.0000
 40
0.1270
 41
0.1270
 70
0
  0
VERTEX
  8
29
 10
-2.9210
 20
0.4445
 30
0.0000
 42
1.0000
  0
VERTEX
  8
29
 10
-2.9210
 20
0.5715
 30
0.0000
  0
SEQEND
  8
0
  0
POLYLINE
  8
29
 66
1
 10
0.0000
 20
0.0000
 30
0.0000
 40
0.1270
 41
0.1270
 70
0
  0
VERTEX
  8
29
 10
-4.5720
 20
0.5715
 30
0.0000
 42
1.0000
  0
VERTEX
  8
29
 10
-4.5720
 20
0.4445
 30
0.0000
  0
SEQEND
  8
0
  0
POLYLINE
  8
29
 66
1
 10
0.0000
 20
0.0000
 30
0.0000
 40
0.2540
 41
0.2540
 70
0
  0
VERTEX
  8
29
 10
-4.5720
 20
0.7620
 30
0.0000
  0
VERTEX
  8
29
 10
-2.9210
 20
0.7620
 30
0.0000
  0
SEQEND
  8
0
  0
POLYLINE
  8
29
 66
1
 10
0.0000
 20
0.0000
 30
0.0000
 40
0.1270
 41
0.1270
 70
0
  0
VERTEX
  8
29
 10
-2.9210
 20
0.6985
 30
0.0000
 42
1.0000
  0
VERTEX
  8
29
 10
-2.9210
 20
0.8255
 30
0.0000
  0
SEQEND
  8
0
  0
POLYLINE
  8
29
 66
1
 10
0.0000
 20
0.0000
 30
0.0000
 40
0.1270
 41
0.1270
 70
0
  0
VERTEX
  8
29
 10
-4.5720
 20
0.8255
 30
0.0000
 42
1.0000
  0
VERTEX
  8
29
 10
-4.5720
 20
0.6985
 30
0.0000
  0
SEQEND
  8
0
  0
POLYLINE
  8
29
 66
1
 10
0.0000
 20
0.0000
 30
0.0000
 40
0.2540
 41
0.2540
 70
0
  0
VERTEX
  8
29
 10
-4.5215
 20
1.0160
 30
0.0000
  0
VERTEX
  8
29
 10
-2.9210
 20
1.0160
 30
0.0000
  0
SEQEND
  8
0
  0
POLYLINE
  8
29
 66
1
 10
0.0000
 20
0.0000
 30
0.0000
 40
0.1270
 41
0.1270
 70
0
  0
VERTEX
  8
29
 10
-2.9210
 20
0.9525
 30
0.0000
 42
1.0000
  0
VERTEX
  8
29
 10
-2.9210
 20
1.0795
 30
0.0000
  0
SEQEND
  8
0
  0
POLYLINE
  8
29
 66
1
 10
0.0000
 20
0.0000
 30
0.0000
 40
0.1270
 41
0.1270
 70
0
  0
VERTEX
  8
29
 10
-4.5215
 20
1.0795
 30
0.0000
 42
1.0000
  0
VERTEX
  8
29
 10
-4.5215
 20
0.9525
 30
0.0000
  0
SEQEND
  8
0
  0
POLYLINE
  8
29
 66
1
 10
0.0000
 20
0.0000
 30
0.0000
 40
0.2540
 41
0.2540
 70
0
  0
VERTEX
  8
29
 10
-4.3839
 20
1.2700
 30
0.0000
  0
VERTEX
  8
29
 10
-2.9210
 20
1.2700
 30
0.0000
  0
SEQEND
  8
0
  0
POLYLINE
  8
29
 66
1
 10
0.0000
 20
0.0000
 30
0.0000
 40
0.1270
 41
0.1270
 70
0
  0
VERTEX
  8
29
 10
-2.9210
 20
1.2065
 30
0.0000
 42
1.0000
  0
VERTEX
  8
29
 10
-2.9210
 20
1.3335
 30
0.0000
  0
SEQEND
  8
0
  0
POLYLINE
  8
29
 66
1
 10
0.0000
 20
0.0000
 30
0.0000
 40
0.1270
 41
0.1270
 70
0
  0
VERTEX
  8
29
 10
-4.3839
 20
1.3335
 30
0.0000
 42
1.0000
  0
VERTEX
  8
29
 10
-4.3839
 20
1.2065
 30
0.0000
  0
SEQEND
  8
0
  0
POLYLINE
  8
29
 66
1
 10
0.0000
 20
0.0000
 30
0.0000
 40
0.2540
 41
0.2540
 70
0
  0
VERTEX
  8
29
 10
-4.1468
 20
1.5240
 30
0.0000
  0
VERTEX
  8
29
 10
-2.9210
 20
1.5240
 30
0.0000
  0
SEQEND
  8
0
  0
POLYLINE
  8
29
 66
1
 10
0.0000
 20
0.0000
 30
0.0000
 40
0.1270
 41
0.1270
 70
0
  0
VERTEX
  8
29
 10
-2.9210
 20
1.4605
 30
0.0000
 42
1.0000
  0
VERTEX
  8
29
 10
-2.9210
 20
1.5875
 30
0.0000
  0
SEQEND
  8
0
  0
POLYLINE
  8
29
 66
1
 10
0.0000
 20
0.0000
 30
0.0000
 40
0.1270
 41
0.1270
 70
0
  0
VERTEX
  8
29
 10
-4.1468
 20
1.5875
 30
0.0000
 42
1.0000
  0
VERTEX
  8
29
 10
-4.1468
 20
1.4605
 30
0.0000
  0
SEQEND
  8
0
  0
POLYLINE
  8
29
 66
1
 10
0.0000
 20
0.0000
 30
0.0000
 40
0.2540
 41
0.2540
 70
0
  0
VERTEX
  8
29
 10
-3.6688
 20
1.7780
 30
0.0000
  0
VERTEX
  8
29
 10
-2.9210
 20
1.7780
 30
0.0000
  0
SEQEND
  8
0
  0
POLYLINE
  8
29
 66
1
 10
0.0000
 20
0.0000
 30
0.0000
 40
0.1270
 41
0.1270
 70
0
  0
VERTEX
  8
29
 10
-2.9210
 20
1.7145
 30
0.0000
 42
1.0000
  0
VERTEX
  8
29
 10
-2.9210
 20
1.8415
 30
0.0000
  0
SEQEND
  8
0
  0
POLYLINE
  8
29
 66
1
 10
0.0000
 20
0.0000
 30
0.0000
 40
0.1270
 41
0.1270
 70
0
  0
VERTEX
  8
29
 10
-3.6688
 20
1.8415
 30
0.0000
 42
1.0000
  0
VERTEX
  8
29
 10
-3.6688
 20
1.7145
 30
0.0000
  0
SEQEND
  8
0
  0
LINE
  8
20
 10
-3.4290
 20
1.7780
 30
0.0000
 11
3.4290
 21
1.7780
 31
0.0000
  0
ARC
  8
20
 10
3.4925
 20
0.6985
 30
0.0000
 40
1.0814
 50
3.3665
 51
93.3665
  0
LINE
  8
20
 10
4.5720
 20
0.7620
 30
0.0000
 11
4.5720
 21
-0.7620
 31
0.0000
  0
ARC
  8
20
 10
3.5560
 20
-0.7620
 30
0.0000
 40
1.0160
 50
270.0000
 51
0.0000
  0
LINE
  8
20
 10
3.5560
 20
-1.7780
 30
0.0000
 11
-3.3020
 21
-1.7780
 31
0.0000
  0
ARC
  8
20
 10
-3.4290
 20
-0.6350
 30
0.0000
 40
1.1500
 50
186.3402
 51
276.3402
  0
LINE
  8
20
 10
-4.5720
 20
-0.7620
 30
0.0000
 11
-4.5720
 21
0.7620
 31
0.0000
  0
ARC
  8
20
 10
-3.4931
 20
0.6992
 30
0.0000
 40
1.0807
 50
86.5984
 51
176.6687
  0
POLYLINE
  8
21
 66
1
 10
0.0000
 20
0.0000
 30
0.0000
 40
0.2032
 41
0.2032
 70
0
  0
VERTEX
  8
21
 10
-2.4384
 20
1.0165
 30
0.0000
  0
VERTEX
  8
21
 10
-1.7266
 20
1.0165
 30
0.0000
  0
SEQEND
  8
0
  0
POLYLINE
  8
21
 66
1
 10
0.0000
 20
0.0000
 30
0.0000
 40
0.1016
 41
0.1016
 70
0
  0
VERTEX
  8
21
 10
-1.7266
 20
0.9657
 30
0.0000
 42
1.0000
  0
VERTEX
  8
21
 10
-1.7266
 20
1.0673
 30
0.0000
  0
SEQEND
  8
0
  0
POLYLINE
  8
21
 66
1
 10
0.0000
 20
0.0000
 30
0.0000
 40
0.1016
 41
0.1016
 70
0
  0
VERTEX
  8
21
 10
-2.4384
 20
1.0673
 30
0.0000
 42
1.0000
  0
VERTEX
  8
21
 10
-2.4384
 20
0.9657
 30
0.0000
  0
SEQEND
  8
0
  0
POLYLINE
  8
21
 66
1
 10
0.0000
 20
0.0000
 30
0.0000
 40
0.2032
 41
0.2032
 70
0
  0
VERTEX
  8
21
 10
-2.0825
 20
1.3724
 30
0.0000
  0
VERTEX
  8
21
 10
-2.0825
 20
0.6606
 30
0.0000
  0
SEQEND
  8
0
  0
POLYLINE
  8
21
 66
1
 10
0.0000
 20
0.0000
 30
0.0000
 40
0.1016
 41
0.1016
 70
0
  0
VERTEX
  8
21
 10
-2.1333
 20
0.6606
 30
0.0000
 42
1.0000
  0
VERTEX
  8
21
 10
-2.0317
 20
0.6606
 30
0.0000
  0
SEQEND
  8
0
  0
POLYLINE
  8
21
 66
1
 10
0.0000
 20
0.0000
 30
0.0000
 40
0.1016
 41
0.1016
 70
0
  0
VERTEX
  8
21
 10
-2.0317
 20
1.3724
 30
0.0000
 42
1.0000
  0
VERTEX
  8
21
 10
-2.1333
 20
1.3724
 30
0.0000
  0
SEQEND
  8
0
  0
POLYLINE
  8
21
 66
1
 10
0.0000
 20
0.0000
 30
0.0000
 40
0.2032
 41
0.2032
 70
0
  0
VERTEX
  8
21
 10
1.7526
 20
1.0165
 30
0.0000
  0
VERTEX
  8
21
 10
2.4644
 20
1.0165
 30
0.0000
  0
SEQEND
  8
0
  0
POLYLINE
  8
21
 66
1
 10
0.0000
 20
0.0000
 30
0.0000
 40
0.1016
 41
0.1016
 70
0
  0
VERTEX
  8
21
 10
2.4644
 20
0.9657
 30
0.0000
 42
1.0000
  0
VERTEX
  8
21
 10
2.4644
 20
1.0673
 30
0.0000
  0
SEQEND
  8
0
  0
POLYLINE
  8
21
 66
1
 10
0.0000
 20
0.0000
 30
0.0000
 40
0.1016
 41
0.1016
 70
0
  0
VERTEX
  8
21
 10
1.7526
 20
1.0673
 30
0.0000
 42
1.0000
  0
VERTEX
  8
21
 10
1.7526
 20
0.9657
 30
0.0000
  0
SEQEND
  8
0
  0
POLYLINE
  8
21
 66
1
 10
0.0000
 20
0.0000
 30
0.0000
 40
0.1016
 41
0.1016
 70
0
  0
VERTEX
  8
21
 10
-0.5500
 20
-1.2620
 30
0.0000
 42
0.4424
  0
VERTEX
  8
21
 10
0.5500
 20
-1.2620
 30
0.0000
  0
SEQEND
  8
0
  0
POLYLINE
  8
21
 66
1
 10
0.0000
 20
0.0000
 30
0.0000
 40
0.1016
 41
0.1016
 70
0
  0
VERTEX
  8
21
 10
0.5500
 20
-0.2620
 30
0.0000
 42
0.4424
  0
VERTEX
  8
21
 10
-0.5500
 20
-0.2620
 30
0.0000
  0
SEQEND
  8
0
  0
INSERT
  8
21
  2
RECT
 10
0.0000
 20
-0.7620
 30
0.0000
 41
0.2000
 42
0.2000
 43
1.0000
 50
0.0000
  0
INSERT
  8
21
  2
RECT
 10
0.5250
 20
-1.3370
 30
0.0000
 41
0.1500
 42
0.2500
 43
1.0000
 50
0.0000
  0
INSERT
  8
29
  2
RECT
 10
-1.4220
 20
-0.7620
 30
0.0000
 41
1.8032
 42
2.0062
 43
1.0000
 50
0.0000
  0
INSERT
  8
29
  2
RECT
 10
1.4220
 20
-0.7620
 30
0.0000
 41
1.8032
 42
2.0062
 43
1.0000
 50
0.0000
  0
INSERT
  8
29
  2
RECT
 10
0.8500
 20
1.0160
 30
0.0000
 41
1.2032
 42
1.3032
 43
1.0000
 50
180.0000
  0
INSERT
  8
29
  2
RECT
 10
-0.8500
 20
1.0160
 30
0.0000
 41
1.2032
 42
1.3032
 43
1.0000
 50
180.0000
  0
INSERT
  8
29
  2
ROUNDV
 10
-3.5560
 20
0.0000
 30
0.0000
 41
1.7032
 42
1.7032
 43
1.0000
 50
0.0000
  0
INSERT
  8
29
  2
ROUNDV
 10
3.5560
 20
0.0000
 30
0.0000
 41
1.7032
 42
1.7032
 43
1.0000
 50
0.0000
  0
ENDSEC
  0
EOF
